<svg width="417" height="97" viewBox="0 0 417 97" fill="none" xmlns="http://www.w3.org/2000/svg">
<g clip-path="url(#clip0_40_1004)">
<path d="M0 14.8487H5.56517V19.8919C6.96406 16.7627 11.252 13.6638 16.1785 13.6638C25.8491 13.6638 30.5628 23.5984 30.5628 31.9836C30.5628 40.3687 25.4538 50.8502 15.5095 50.6375C11.2824 50.516 8.87994 49.4527 5.89968 45.6854V63.1545H0V14.8487ZM15.3574 45.412C20.6793 45.412 24.6935 39.9738 24.4502 31.2544C24.1765 22.7174 20.9226 19.1932 14.8404 19.0716C7.99803 19.0716 5.41311 26.0289 5.56517 33.5634C5.83886 42.5562 10.6133 45.412 15.3574 45.412Z" fill="white"/>
<path d="M34.8507 14.8487H40.4159V20.7426C42.7271 16.9146 45.4641 13.5119 51.8199 14.0587V20.135C45.8594 19.5881 40.6896 23.1123 40.6896 28.7328V49.4526H34.8507V14.8487Z" fill="white"/>
<path d="M66.8428 13.9067C77.9731 13.9067 82.9909 23.2337 82.9909 32.105C82.9909 40.9762 77.9427 50.4855 66.8428 50.4855C55.7429 50.4855 50.8163 41.037 50.8163 32.105C50.8163 23.1729 55.7125 13.9067 66.8428 13.9067ZM66.8428 45.4119C75.2666 45.4119 76.9696 36.814 76.9696 32.105C76.9696 27.4567 75.2362 18.9196 66.8428 18.9196C58.4494 18.9196 56.7769 27.4567 56.7769 32.105C56.7769 36.7533 58.419 45.4119 66.8428 45.4119Z" fill="white"/>
<path d="M85.8495 14.8487H91.4147V19.8919C92.8136 16.7627 97.1015 13.6638 102.028 13.6638C111.699 13.6638 116.412 23.5984 116.412 31.9836C116.412 40.6422 111.303 50.8502 101.389 50.6375C97.1319 50.516 94.7599 49.4527 91.7796 45.6854V63.1545H85.8799V14.8487H85.8495ZM101.207 45.412C106.498 45.412 110.543 39.9738 110.3 31.2544C110.026 22.7174 106.772 19.1932 100.69 19.0716C93.878 19.0716 91.293 26.0289 91.4147 33.5634C91.6884 42.5562 96.4629 45.412 101.207 45.412Z" fill="white"/>
<path d="M119.91 8.62062V1.99756H125.87V8.62062H119.91ZM119.91 49.4527V14.9703H125.87V49.4527H119.91Z" fill="white"/>
<path d="M160.903 38.6065C160.629 40.2775 159.048 45.2296 154.669 48.1462C153.148 49.2095 150.776 50.5159 145.211 50.5159C139.646 50.5159 135.541 48.1462 132.956 44.4397C130.918 41.4623 129.702 37.5736 129.702 33.1987C129.702 27.1225 131.344 21.8058 134.872 18.312C137.973 15.0612 142.17 13.4207 146.124 13.4207C151.02 13.4207 155.855 15.8815 158.562 20.8944C160.356 24.4186 161.268 28.7631 161.268 34.1405H135.906C135.906 41.3408 139.281 45.4726 145.972 45.4726C151.537 45.4726 154.791 41.2497 154.912 38.6673H160.873L160.903 38.6065ZM155.216 29.4011C154.943 24.1148 152.631 19.0715 145.607 19.0715C140.163 19.0715 135.936 24.1148 135.936 29.4011H155.216Z" fill="white"/>
<path d="M193.716 49.4527H188.303V44.6828C185.323 49.9691 179.363 50.6375 178.237 50.516C166.438 50.516 163.062 39.5181 163.062 31.1329C163.062 21.411 168.232 13.9372 177.447 13.9372C183.803 13.9372 186.387 17.7653 187.786 19.7704V1.87598H193.747V49.4527H193.716ZM178.359 45.412C182.069 45.412 187.908 42.9511 187.908 33.8368C187.908 28.1556 186.996 19.0716 178.511 19.0716C169.57 19.0716 169.053 27.6087 169.053 32.1355C169.053 39.7915 172.034 45.4424 178.389 45.4424" fill="white"/>
<path d="M208.678 29.4011C212.176 28.8542 219.809 30.0694 219.809 24.7528C219.809 20.1348 215.916 18.7981 211.78 18.6462C206.793 18.6462 204.086 20.9551 203.782 25.4211H198.339C197.822 20.2564 202.049 13.9067 212.054 13.9067C218.866 13.9067 225.496 16.3372 225.496 22.9603V42.6776C225.496 44.6827 225.769 45.3815 227.138 45.5334C227.807 45.4119 228.598 45.26 229.327 45.1992V49.4221C228.932 49.6652 227.412 50.0601 225.465 50.0601C223.002 50.0601 220.295 48.9968 220.022 44.8954C215.855 49.3918 211.081 50.3336 207.584 50.4551C201.167 50.4551 196.575 45.6245 196.453 40.7332C196.605 40.4597 196.605 40.1863 196.605 40.0648C197.001 35.4165 198.643 30.7986 208.648 29.3403M202.688 40.5813C203.083 44.227 205.668 45.6245 208.77 45.746C212.997 45.4726 219.626 43.0421 219.626 37.8774V31.6493C217.558 34.2316 201.745 32.3176 202.657 40.5813" fill="white"/>
<path d="M260.894 49.4527H255.45V44.6828C252.47 49.9691 246.509 50.6375 245.384 50.516C233.585 50.516 230.209 39.5181 230.209 31.1329C230.209 21.411 235.379 13.9372 244.594 13.9372C250.949 13.9372 253.534 17.7653 254.933 19.7704V1.87598H260.894V49.4527ZM245.536 45.412C249.246 45.412 255.085 42.9511 255.085 33.8368C255.085 28.1556 254.143 19.0716 245.658 19.0716C236.717 19.0716 236.2 27.6087 236.2 32.1355C236.2 39.7915 239.18 45.4424 245.536 45.4424" fill="white"/>
<g opacity="0.4">
<mask id="mask0_40_1004" style="mask-type:luminance" maskUnits="userSpaceOnUse" x="264" y="13" width="63" height="38">
<path d="M326.429 13.3904H264.756V50.516H326.429V13.3904Z" fill="white"/>
</mask>
<g mask="url(#mask0_40_1004)">
<path d="M295.957 38.6065C295.684 40.2775 294.102 45.2296 289.723 48.1462C288.203 49.2095 285.8 50.5159 280.265 50.5159C274.731 50.5159 270.595 48.1462 268.01 44.4397C265.972 41.4623 264.756 37.5736 264.756 33.1987C264.756 27.1225 266.398 21.8058 269.926 18.312C273.028 15.0612 277.194 13.4207 281.178 13.4207C286.074 13.4207 290.909 15.8815 293.646 20.8944C295.44 24.4186 296.353 28.7631 296.353 34.1405H270.99C270.99 41.3408 274.366 45.4726 281.056 45.4726C286.621 45.4726 289.875 41.2497 289.997 38.6673H295.957V38.6065ZM290.24 29.4011C289.966 24.1148 287.655 19.0715 280.63 19.0715C275.187 19.0715 270.96 24.1148 270.96 29.4011H290.24Z" fill="white"/>
<path d="M319.678 24.7833C319.678 22.5958 318.948 18.9501 311.528 18.9501C309.733 18.9501 304.564 19.4666 304.564 23.8414C304.564 26.6973 306.358 27.3353 310.919 28.3986C316.819 29.9176 326.429 31.1025 326.429 38.9712C326.429 46.2019 320.59 50.4856 312.714 50.4856C298.998 50.4856 298.086 42.5562 297.812 38.3028H303.53C303.682 41.0067 304.472 45.3816 312.744 45.3816C316.849 45.3816 320.62 43.741 320.62 39.9434C320.62 37.0876 318.705 36.2369 313.717 34.9305C307.817 33.533 298.998 32.7431 298.998 24.8744C298.998 17.0057 305.233 13.8765 312.045 13.8765C324.483 13.8765 325.364 22.93 325.364 24.7225H319.678V24.7833Z" fill="white"/>
</g>
</g>
<path d="M241.978 69.2611V64.9774H236.9V69.2611H236.656V60.8152H236.9V64.7343H241.978V60.8152H242.252V69.2611H241.978Z" fill="white"/>
<path d="M241.978 69.2611V64.9774H236.9V69.2611H236.656V60.8152H236.9V64.7343H241.978V60.8152H242.252V69.2611H241.978Z" fill="white"/>
<path d="M248.638 69.4131C246.631 69.4131 245.171 67.7725 245.171 65.0686C245.171 62.3647 246.631 60.7241 248.638 60.7241C250.645 60.7241 252.105 62.3647 252.105 65.0686C252.105 67.7725 250.645 69.4131 248.638 69.4131ZM248.638 60.9368C246.814 60.9368 245.445 62.4558 245.445 65.0382C245.445 67.6206 246.814 69.1397 248.669 69.1397C250.524 69.1397 251.862 67.6206 251.862 65.0382C251.862 62.4558 250.493 60.9368 248.669 60.9368" fill="white"/>
<path d="M248.638 69.4131C246.631 69.4131 245.171 67.7725 245.171 65.0686C245.171 62.3647 246.631 60.7241 248.638 60.7241C250.645 60.7241 252.105 62.3647 252.105 65.0686C252.105 67.7725 250.645 69.4131 248.638 69.4131ZM248.638 60.9368C246.814 60.9368 245.445 62.4558 245.445 65.0382C245.445 67.6206 246.814 69.1397 248.669 69.1397C250.524 69.1397 251.862 67.6206 251.862 65.0382C251.862 62.4558 250.493 60.9368 248.669 60.9368H248.638Z" fill="white"/>
<path d="M261.928 69.2611V61.4228L258.613 69.3523H258.583L255.298 61.4228V69.2611H255.024V60.8152H255.298L258.613 68.7446L261.897 60.8152H262.171V69.2611H261.928Z" fill="white"/>
<path d="M261.928 69.2611V61.4228L258.613 69.3523H258.583L255.298 61.4228V69.2611H255.024V60.8152H255.298L258.613 68.7446L261.897 60.8152H262.171V69.2611H261.928Z" fill="white"/>
<path d="M265.425 69.2611V60.8152H269.956V61.0582H265.668V64.6432H268.314V64.8862H265.668V69.0181H270.139V69.2611H265.425Z" fill="white"/>
<path d="M265.425 69.2611V60.8152H269.956V61.0582H265.668V64.6432H268.314V64.8862H265.668V69.0181H270.139V69.2611H265.425Z" fill="white"/>
<path d="M281.573 65.6762L281.816 65.737C281.573 66.5573 281.33 67.256 280.934 67.8333L282.06 69.2612H281.725L280.782 68.0763C280.174 68.8966 279.323 69.4131 278.197 69.4131C276.738 69.4131 275.917 68.5624 275.917 67.256C275.917 66.0104 276.707 65.1294 277.954 64.5217L277.68 64.1572C277.163 63.4584 276.829 63.0027 276.829 62.3039C276.829 61.3317 277.62 60.7241 278.654 60.7241C279.535 60.7241 280.174 60.9672 280.813 61.4229L280.691 61.6355C280.113 61.1798 279.475 60.9672 278.654 60.9672C277.832 60.9672 277.103 61.4533 277.103 62.3039C277.103 62.9419 277.407 63.3977 277.893 64.0053L280.752 67.6814C281.056 67.2257 281.36 66.4358 281.573 65.7066M278.106 64.704C276.89 65.3117 276.19 66.1623 276.19 67.2864C276.19 68.5017 276.981 69.2308 278.228 69.2308C279.353 69.2308 280.113 68.6536 280.63 67.9548L278.106 64.7344V64.704Z" fill="white"/>
<path d="M281.573 65.6762L281.816 65.737C281.573 66.5573 281.33 67.256 280.934 67.8333L282.06 69.2612H281.725L280.782 68.0763C280.174 68.8966 279.323 69.4131 278.197 69.4131C276.738 69.4131 275.917 68.5624 275.917 67.256C275.917 66.0104 276.707 65.1294 277.954 64.5217L277.68 64.1572C277.163 63.4584 276.829 63.0027 276.829 62.3039C276.829 61.3317 277.62 60.7241 278.654 60.7241C279.535 60.7241 280.174 60.9672 280.813 61.4229L280.691 61.6355C280.113 61.1798 279.475 60.9672 278.654 60.9672C277.832 60.9672 277.103 61.4533 277.103 62.3039C277.103 62.9419 277.407 63.3977 277.893 64.0053L280.752 67.6814C281.056 67.2257 281.36 66.4358 281.573 65.7066V65.6762ZM278.106 64.6737C276.89 65.2813 276.19 66.1319 276.19 67.256C276.19 68.4713 276.981 69.2004 278.228 69.2004C279.353 69.2004 280.113 68.6232 280.63 67.9244L278.106 64.704V64.6737Z" fill="white"/>
<path d="M288.476 69.2611V60.8152H288.75V69.0181H292.916V69.2611H288.476Z" fill="white"/>
<path d="M288.476 69.2611V60.8152H288.75V69.0181H292.916V69.2611H288.476Z" fill="white"/>
<path d="M295.805 60.8152H295.532V69.2611H295.805V60.8152Z" fill="white"/>
<path d="M295.805 60.8152H295.532V69.2611H295.805V60.8152Z" fill="white"/>
<path d="M301.948 69.3219H301.675L298.725 60.8152H298.998L301.827 68.9877L304.655 60.8152H304.898L301.948 69.3219Z" fill="white"/>
<path d="M301.948 69.3219H301.675L298.725 60.8152H298.998L301.827 68.9877L304.655 60.8152H304.898L301.948 69.3219Z" fill="white"/>
<path d="M308.091 60.8152H307.818V69.2611H308.091V60.8152Z" fill="white"/>
<path d="M308.091 60.8152H307.818V69.2611H308.091V60.8152Z" fill="white"/>
<path d="M316.637 69.2611L311.649 61.2101V69.2611H311.376V60.8152H311.68L316.667 68.8358V60.8152H316.941V69.2611H316.637Z" fill="white"/>
<path d="M316.637 69.2611L311.649 61.2101V69.2611H311.376V60.8152H311.68L316.667 68.8358V60.8152H316.941V69.2611H316.637Z" fill="white"/>
<path d="M323.266 69.4131C321.259 69.4131 319.86 67.6814 319.86 65.0686C319.86 62.4558 321.289 60.7241 323.266 60.7241C324.391 60.7241 325.121 61.1191 325.699 61.7571L325.517 61.9394C324.969 61.3621 324.331 60.9672 323.266 60.9672C321.442 60.9672 320.134 62.5774 320.134 65.0686C320.134 67.5598 321.442 69.17 323.266 69.17C324.939 69.17 325.912 68.0459 325.912 65.9497V65.737H323.814V65.4939H326.155V65.9193C326.155 68.1675 325.03 69.3827 323.266 69.3827" fill="white"/>
<path d="M323.266 69.4131C321.259 69.4131 319.86 67.6814 319.86 65.0686C319.86 62.4558 321.289 60.7241 323.266 60.7241C324.391 60.7241 325.121 61.1191 325.699 61.7571L325.517 61.9394C324.969 61.3621 324.331 60.9672 323.266 60.9672C321.442 60.9672 320.134 62.5774 320.134 65.0686C320.134 67.5598 321.442 69.17 323.266 69.17C324.939 69.17 325.912 68.0459 325.912 65.9497V65.737H323.814V65.4939H326.155V65.9193C326.155 68.1675 325.03 69.3827 323.266 69.3827V69.4131Z" fill="white"/>
<path d="M152.023 69.2613H151.78V61.1191H152.023V69.2613Z" fill="white"/>
<path d="M159.778 69.2613H159.474L154.669 61.5141V69.2613H154.426V61.1191H154.73L159.535 68.8663V61.1191H159.778V69.2613Z" fill="white"/>
<path d="M167.715 61.1191L164.887 69.322H164.613L161.755 61.1191H162.028L164.765 68.9878L167.502 61.1191H167.746H167.715Z" fill="white"/>
<path d="M174.254 69.2613H169.722V61.1191H174.101V61.3622H169.996V64.8256H172.551V65.0687H169.996V69.0486H174.284V69.2916L174.254 69.2613Z" fill="white"/>
<path d="M178.846 65.4939L180.822 69.2611H180.518L178.541 65.4939C178.359 65.4939 178.177 65.4939 177.994 65.4939H176.139V69.2307H175.896V61.0886H178.237C179.819 61.0886 180.913 61.6355 180.913 63.2457C180.913 64.5521 180.275 65.2508 178.846 65.4635V65.4939ZM180.64 63.3064C180.64 61.8481 179.697 61.3621 178.207 61.3621H176.139V65.3116H178.055C179.788 65.3116 180.64 64.704 180.64 63.3064Z" fill="white"/>
<path d="M187.452 67.2864C187.452 68.684 186.387 69.3827 185.019 69.3827C183.955 69.3827 183.164 69.0485 182.495 68.5017L182.647 68.3194C183.346 68.8662 184.015 69.1701 185.049 69.1701C186.235 69.1701 187.209 68.5624 187.209 67.2864C187.209 66.2535 186.661 65.7978 184.928 65.1294C183.164 64.461 182.677 63.9749 182.677 62.9419C182.677 61.909 183.468 60.9976 185.019 60.9976C185.992 60.9976 186.722 61.3014 187.33 61.6963L187.178 61.8786C186.6 61.4837 185.931 61.1798 184.989 61.1798C183.529 61.1798 182.921 62.0001 182.921 62.8812C182.921 63.823 183.346 64.2483 185.049 64.8863C186.813 65.5547 187.452 66.1016 187.452 67.2257V67.2864Z" fill="white"/>
<path d="M189.854 69.2613H189.611V61.1191H189.854V69.2613Z" fill="white"/>
<path d="M198.613 65.1901C198.613 67.8333 197.214 69.3827 195.267 69.3827C193.321 69.3827 191.922 67.8029 191.922 65.1901C191.922 62.5774 193.321 60.9976 195.267 60.9976C197.214 60.9976 198.613 62.5774 198.613 65.1901ZM198.369 65.1901C198.369 62.6989 197.031 61.2102 195.298 61.2102C193.564 61.2102 192.196 62.6989 192.196 65.1901C192.196 67.6814 193.534 69.1701 195.298 69.1701C197.062 69.1701 198.369 67.6814 198.369 65.1901Z" fill="white"/>
<path d="M206.002 69.2613H205.698L200.893 61.5141V69.2613H200.65V61.1191H200.954L205.759 68.8663V61.1191H206.002V69.2613Z" fill="white"/>
<path d="M212.875 69.2613H208.344V61.1191H212.723V61.3622H208.618V64.8256H211.172V65.0687H208.618V69.0486H212.906V69.2916L212.875 69.2613Z" fill="white"/>
<path d="M218.897 67.2864C218.897 68.684 217.832 69.3827 216.464 69.3827C215.399 69.3827 214.609 69.0485 213.94 68.5017L214.092 68.3194C214.791 68.8662 215.46 69.1701 216.494 69.1701C217.68 69.1701 218.653 68.5624 218.653 67.2864C218.653 66.2535 218.106 65.7978 216.372 65.1294C214.609 64.461 214.122 63.9749 214.122 62.9419C214.122 61.909 214.913 60.9976 216.464 60.9976C217.437 60.9976 218.167 61.3014 218.775 61.6963L218.623 61.8786C218.045 61.4837 217.376 61.1798 216.433 61.1798C214.974 61.1798 214.365 62.0001 214.365 62.8812C214.365 63.823 214.791 64.2483 216.494 64.8863C218.258 65.5547 218.897 66.1016 218.897 67.2257V67.2864Z" fill="white"/>
<path d="M228.567 65.0381C228.567 65.7065 228.02 66.223 227.381 66.223C226.742 66.223 226.195 65.6761 226.195 65.0381C226.195 64.4001 226.742 63.8533 227.381 63.8533C228.02 63.8533 228.567 64.4001 228.567 65.0381Z" fill="white"/>
</g>
<line x1="345.701" y1="2.23802e-08" x2="345.701" y2="73" stroke="#EF7D67" stroke-width="1.024"/>
<g clip-path="url(#clip1_40_1004)">
<path d="M362.525 61.8989C362.525 62.6942 362.932 63.3531 363.769 63.3531C364.334 63.3531 364.763 63.0577 364.899 62.5124H365.373C365.17 63.2168 364.718 63.7621 363.791 63.7621C362.593 63.7621 362.096 62.9214 362.096 61.808C362.096 60.6947 362.729 59.854 363.791 59.854C364.853 59.854 365.419 60.5811 365.419 61.8989H362.525ZM364.921 61.5354C364.921 60.8083 364.537 60.2175 363.746 60.2175C362.955 60.2175 362.593 60.831 362.503 61.5354H364.899H364.921Z" fill="white"/>
<path d="M366.323 63.6485V58.4907H366.752V63.6485H366.323Z" fill="white"/>
<path d="M371.16 60.1949C371.069 59.8768 370.911 59.3088 370.03 59.3088C369.51 59.3088 368.764 59.6496 368.764 61.1038C368.764 62.0126 369.125 62.8533 370.03 62.8533C370.617 62.8533 371.024 62.5125 371.16 61.899H372.222C371.996 63.0124 371.273 63.7849 370.007 63.7849C368.651 63.7849 367.679 62.8533 367.679 61.081C367.679 59.3088 368.696 58.3772 370.03 58.3772C371.567 58.3772 372.177 59.4451 372.245 60.1949H371.182H371.16Z" fill="white"/>
<path d="M375.228 58.3772C375.906 58.3772 377.669 58.6726 377.669 61.081C377.669 63.4895 375.884 63.7849 375.228 63.7849C374.573 63.7849 372.787 63.4895 372.787 61.081C372.787 58.6726 374.55 58.3772 375.228 58.3772ZM375.228 62.876C375.816 62.876 376.607 62.5125 376.607 61.081C376.607 59.6496 375.816 59.2861 375.228 59.2861C374.64 59.2861 373.849 59.6496 373.849 61.081C373.849 62.5125 374.663 62.876 375.228 62.876Z" fill="white"/>
<path d="M379.658 62.7169H382.19V63.6485H378.596V58.5134H379.658V62.7169Z" fill="white"/>
<path d="M384.97 58.3772C385.648 58.3772 387.434 58.6726 387.434 61.081C387.434 63.4895 385.648 63.7849 384.97 63.7849C384.292 63.7849 382.529 63.4895 382.529 61.081C382.529 58.6726 384.314 58.3772 384.97 58.3772ZM384.97 62.876C385.558 62.876 386.371 62.5125 386.371 61.081C386.371 59.6496 385.558 59.2861 384.97 59.2861C384.382 59.2861 383.591 59.6496 383.591 61.081C383.591 62.5125 384.405 62.876 384.97 62.876Z" fill="white"/>
<path d="M393.243 63.6485H392.248V59.3541L391.299 63.6485H390.259L389.332 59.3541V63.6485H388.338V58.5134H389.897L390.824 62.5578L391.728 58.5134H393.265V63.6485H393.243Z" fill="white"/>
<path d="M394.192 58.5134H396.678C397.921 58.5134 398.26 59.3087 398.26 59.8313C398.26 60.5584 397.831 60.7856 397.627 60.8764C398.26 61.1264 398.419 61.6263 398.419 62.1261C398.419 62.5351 398.238 62.9214 397.966 63.194C397.673 63.4667 397.401 63.6712 396.362 63.6712H394.192V58.5361V58.5134ZM395.232 60.5129H396.475C396.904 60.5129 397.221 60.3539 397.221 59.9449C397.221 59.5359 396.927 59.3996 396.43 59.3996H395.209V60.5129H395.232ZM395.232 62.7623H396.543C397.062 62.7623 397.356 62.5351 397.356 62.0125C397.356 61.5581 396.972 61.399 396.588 61.399H395.232V62.7623Z" fill="white"/>
<path d="M400.249 63.6485H399.187V58.5134H400.249V63.6485Z" fill="white"/>
<path d="M402.148 63.6485H401.018L402.849 58.5134H404.069L405.855 63.6485H404.702L404.363 62.5806H402.487L402.125 63.6485H402.148ZM402.804 61.6944H404.092L403.459 59.6495L402.804 61.6944Z" fill="white"/>
<path d="M409.72 58.5134H410.714V63.6485H409.652L407.573 59.9903V63.6485H406.578V58.5134H407.708L409.72 62.0807V58.5134Z" fill="white"/>
<path d="M414.037 58.3772C414.715 58.3772 416.501 58.6726 416.501 61.081C416.501 63.4895 414.715 63.7849 414.037 63.7849C413.359 63.7849 411.573 63.4895 411.573 61.081C411.573 58.6726 413.359 58.3772 414.037 58.3772ZM414.037 62.876C414.602 62.876 415.416 62.5125 415.416 61.081C415.416 59.6496 414.602 59.2861 414.037 59.2861C413.472 59.2861 412.636 59.6496 412.636 61.081C412.636 62.5125 413.449 62.876 414.037 62.876Z" fill="white"/>
<path d="M416.478 57.0823H362.073V57.2868H416.478V57.0823Z" fill="white"/>
<path d="M405.606 40.3138H402.871C402.758 47.0621 396.565 51.2655 392.203 51.2655C387.84 51.2655 383.817 47.8573 383.817 42.1315V20.2963C383.817 14.7977 387.456 11.1623 392.338 11.1623C399.051 11.1623 402.397 20.6598 402.871 22.0913H405.561V7.50415C405.041 10.9351 401.063 12.9573 398.012 11.0487C394.418 8.79927 390.169 7.50415 385.603 7.50415C372.629 7.50415 362.073 18.115 362.073 31.2025C362.073 44.2901 372.629 54.9009 385.648 54.9009C403.798 54.9009 405.606 42.1315 405.606 40.3138Z" fill="white"/>
<path d="M416.478 49.4251C416.478 52.447 414.037 54.9009 411.031 54.9009C408.025 54.9009 405.584 52.447 405.584 49.4251C405.584 46.4031 408.025 43.9492 411.031 43.9492C414.037 43.9492 416.478 46.3804 416.478 49.4251Z" fill="white"/>
</g>
<path d="M97.116 95H96.388V85.417H93.07V84.766H100.434V85.417H97.116V95ZM109.116 91.185C109.116 91.773 109.044 92.3097 108.899 92.795C108.754 93.2757 108.54 93.691 108.255 94.041C107.97 94.391 107.616 94.6617 107.191 94.853C106.771 95.0443 106.281 95.14 105.721 95.14C105.189 95.14 104.715 95.0467 104.3 94.86C103.885 94.6687 103.532 94.398 103.243 94.048C102.958 93.698 102.741 93.2827 102.592 92.802C102.443 92.3167 102.368 91.7777 102.368 91.185C102.368 90.3683 102.503 89.666 102.774 89.078C103.049 88.4853 103.441 88.0327 103.95 87.72C104.463 87.4027 105.077 87.244 105.791 87.244C106.528 87.244 107.142 87.412 107.632 87.748C108.127 88.0793 108.498 88.5413 108.745 89.134C108.992 89.7267 109.116 90.4103 109.116 91.185ZM103.096 91.185C103.096 91.8523 103.192 92.4357 103.383 92.935C103.574 93.4343 103.864 93.824 104.251 94.104C104.643 94.384 105.138 94.524 105.735 94.524C106.346 94.524 106.848 94.384 107.24 94.104C107.632 93.824 107.921 93.432 108.108 92.928C108.295 92.424 108.388 91.843 108.388 91.185C108.388 90.5457 108.299 89.9763 108.122 89.477C107.945 88.9777 107.665 88.5857 107.282 88.301C106.899 88.0117 106.4 87.867 105.784 87.867C104.902 87.867 104.232 88.161 103.775 88.749C103.322 89.337 103.096 90.149 103.096 91.185ZM114.998 95.14C113.957 95.14 113.164 94.8133 112.618 94.16C112.077 93.502 111.806 92.5453 111.806 91.29C111.806 89.974 112.093 88.9707 112.667 88.28C113.241 87.5893 114.041 87.244 115.068 87.244C115.507 87.244 115.887 87.3117 116.209 87.447C116.536 87.5823 116.809 87.7667 117.028 88C117.252 88.2287 117.425 88.49 117.546 88.784H117.602C117.583 88.5367 117.569 88.2707 117.56 87.986C117.551 87.7013 117.546 87.44 117.546 87.202V84.108H118.253V95H117.679L117.588 93.607H117.546C117.42 93.887 117.245 94.1437 117.021 94.377C116.802 94.6103 116.526 94.797 116.195 94.937C115.864 95.0723 115.465 95.14 114.998 95.14ZM115.075 94.524C115.971 94.524 116.608 94.2463 116.986 93.691C117.364 93.131 117.553 92.333 117.553 91.297V91.185C117.553 90.1117 117.364 89.2903 116.986 88.721C116.608 88.147 115.992 87.86 115.138 87.86C114.293 87.86 113.647 88.154 113.199 88.742C112.756 89.33 112.534 90.184 112.534 91.304C112.534 92.3587 112.742 93.159 113.157 93.705C113.577 94.251 114.216 94.524 115.075 94.524ZM128.118 91.185C128.118 91.773 128.046 92.3097 127.901 92.795C127.756 93.2757 127.542 93.691 127.257 94.041C126.972 94.391 126.618 94.6617 126.193 94.853C125.773 95.0443 125.283 95.14 124.723 95.14C124.191 95.14 123.717 95.0467 123.302 94.86C122.887 94.6687 122.534 94.398 122.245 94.048C121.96 93.698 121.743 93.2827 121.594 92.802C121.445 92.3167 121.37 91.7777 121.37 91.185C121.37 90.3683 121.505 89.666 121.776 89.078C122.051 88.4853 122.443 88.0327 122.952 87.72C123.465 87.4027 124.079 87.244 124.793 87.244C125.53 87.244 126.144 87.412 126.634 87.748C127.129 88.0793 127.5 88.5413 127.747 89.134C127.994 89.7267 128.118 90.4103 128.118 91.185ZM122.098 91.185C122.098 91.8523 122.194 92.4357 122.385 92.935C122.576 93.4343 122.866 93.824 123.253 94.104C123.645 94.384 124.14 94.524 124.737 94.524C125.348 94.524 125.85 94.384 126.242 94.104C126.634 93.824 126.923 93.432 127.11 92.928C127.297 92.424 127.39 91.843 127.39 91.185C127.39 90.5457 127.301 89.9763 127.124 89.477C126.947 88.9777 126.667 88.5857 126.284 88.301C125.901 88.0117 125.402 87.867 124.786 87.867C123.904 87.867 123.234 88.161 122.777 88.749C122.324 89.337 122.098 90.149 122.098 91.185ZM136.002 93.005C136.002 93.4577 135.888 93.845 135.659 94.167C135.435 94.4843 135.106 94.727 134.672 94.895C134.238 95.0583 133.704 95.14 133.069 95.14C132.542 95.14 132.07 95.0933 131.655 95C131.24 94.9067 130.892 94.7923 130.612 94.657V93.957C130.962 94.1297 131.349 94.2697 131.774 94.377C132.199 94.4843 132.635 94.538 133.083 94.538C133.867 94.538 134.432 94.405 134.777 94.139C135.122 93.873 135.295 93.509 135.295 93.047C135.295 92.7437 135.209 92.494 135.036 92.298C134.868 92.0973 134.625 91.9247 134.308 91.78C133.991 91.6353 133.608 91.4883 133.16 91.339C132.693 91.1803 132.278 91.024 131.914 90.87C131.555 90.7113 131.272 90.5037 131.067 90.247C130.862 89.9857 130.759 89.631 130.759 89.183C130.759 88.5717 131.004 88.0957 131.494 87.755C131.984 87.4143 132.642 87.244 133.468 87.244C133.925 87.244 134.35 87.2883 134.742 87.377C135.139 87.461 135.498 87.5707 135.82 87.706L135.568 88.308C135.279 88.1727 134.945 88.063 134.567 87.979C134.189 87.895 133.811 87.853 133.433 87.853C132.812 87.853 132.327 87.9627 131.977 88.182C131.627 88.4013 131.452 88.7233 131.452 89.148C131.452 89.4747 131.536 89.7313 131.704 89.918C131.872 90.1 132.112 90.254 132.425 90.38C132.738 90.5013 133.109 90.6367 133.538 90.786C133.981 90.94 134.39 91.101 134.763 91.269C135.141 91.437 135.442 91.654 135.666 91.92C135.89 92.186 136.002 92.5477 136.002 93.005ZM144.413 95H143.699V84.108H144.413V95ZM154.278 91.185C154.278 91.773 154.206 92.3097 154.061 92.795C153.916 93.2757 153.702 93.691 153.417 94.041C153.132 94.391 152.778 94.6617 152.353 94.853C151.933 95.0443 151.443 95.14 150.883 95.14C150.351 95.14 149.877 95.0467 149.462 94.86C149.047 94.6687 148.694 94.398 148.405 94.048C148.12 93.698 147.903 93.2827 147.754 92.802C147.605 92.3167 147.53 91.7777 147.53 91.185C147.53 90.3683 147.665 89.666 147.936 89.078C148.211 88.4853 148.603 88.0327 149.112 87.72C149.625 87.4027 150.239 87.244 150.953 87.244C151.69 87.244 152.304 87.412 152.794 87.748C153.289 88.0793 153.66 88.5413 153.907 89.134C154.154 89.7267 154.278 90.4103 154.278 91.185ZM148.258 91.185C148.258 91.8523 148.354 92.4357 148.545 92.935C148.736 93.4343 149.026 93.824 149.413 94.104C149.805 94.384 150.3 94.524 150.897 94.524C151.508 94.524 152.01 94.384 152.402 94.104C152.794 93.824 153.083 93.432 153.27 92.928C153.457 92.424 153.55 91.843 153.55 91.185C153.55 90.5457 153.461 89.9763 153.284 89.477C153.107 88.9777 152.827 88.5857 152.444 88.301C152.061 88.0117 151.562 87.867 150.946 87.867C150.064 87.867 149.394 88.161 148.937 88.749C148.484 89.337 148.258 90.149 148.258 91.185ZM162.162 93.005C162.162 93.4577 162.048 93.845 161.819 94.167C161.595 94.4843 161.266 94.727 160.832 94.895C160.398 95.0583 159.864 95.14 159.229 95.14C158.702 95.14 158.23 95.0933 157.815 95C157.4 94.9067 157.052 94.7923 156.772 94.657V93.957C157.122 94.1297 157.509 94.2697 157.934 94.377C158.359 94.4843 158.795 94.538 159.243 94.538C160.027 94.538 160.592 94.405 160.937 94.139C161.282 93.873 161.455 93.509 161.455 93.047C161.455 92.7437 161.369 92.494 161.196 92.298C161.028 92.0973 160.785 91.9247 160.468 91.78C160.151 91.6353 159.768 91.4883 159.32 91.339C158.853 91.1803 158.438 91.024 158.074 90.87C157.715 90.7113 157.432 90.5037 157.227 90.247C157.022 89.9857 156.919 89.631 156.919 89.183C156.919 88.5717 157.164 88.0957 157.654 87.755C158.144 87.4143 158.802 87.244 159.628 87.244C160.085 87.244 160.51 87.2883 160.902 87.377C161.299 87.461 161.658 87.5707 161.98 87.706L161.728 88.308C161.439 88.1727 161.105 88.063 160.727 87.979C160.349 87.895 159.971 87.853 159.593 87.853C158.972 87.853 158.487 87.9627 158.137 88.182C157.787 88.4013 157.612 88.7233 157.612 89.148C157.612 89.4747 157.696 89.7313 157.864 89.918C158.032 90.1 158.272 90.254 158.585 90.38C158.898 90.5013 159.269 90.6367 159.698 90.786C160.141 90.94 160.55 91.101 160.923 91.269C161.301 91.437 161.602 91.654 161.826 91.92C162.05 92.186 162.162 92.5477 162.162 93.005ZM172.61 95.14C171.569 95.14 170.776 94.8133 170.23 94.16C169.689 93.502 169.418 92.5453 169.418 91.29C169.418 89.974 169.705 88.9707 170.279 88.28C170.853 87.5893 171.653 87.244 172.68 87.244C173.119 87.244 173.499 87.3117 173.821 87.447C174.148 87.5823 174.421 87.7667 174.64 88C174.864 88.2287 175.037 88.49 175.158 88.784H175.214C175.195 88.5367 175.181 88.2707 175.172 87.986C175.163 87.7013 175.158 87.44 175.158 87.202V84.108H175.865V95H175.291L175.2 93.607H175.158C175.032 93.887 174.857 94.1437 174.633 94.377C174.414 94.6103 174.138 94.797 173.807 94.937C173.476 95.0723 173.077 95.14 172.61 95.14ZM172.687 94.524C173.583 94.524 174.22 94.2463 174.598 93.691C174.976 93.131 175.165 92.333 175.165 91.297V91.185C175.165 90.1117 174.976 89.2903 174.598 88.721C174.22 88.147 173.604 87.86 172.75 87.86C171.905 87.86 171.259 88.154 170.811 88.742C170.368 89.33 170.146 90.184 170.146 91.304C170.146 92.3587 170.354 93.159 170.769 93.705C171.189 94.251 171.828 94.524 172.687 94.524ZM182.3 87.244C182.949 87.244 183.488 87.3957 183.917 87.699C184.351 88.0023 184.673 88.4177 184.883 88.945C185.098 89.4723 185.205 90.0767 185.205 90.758V91.269H179.71C179.71 92.3143 179.95 93.117 180.431 93.677C180.916 94.237 181.609 94.517 182.51 94.517C182.981 94.517 183.39 94.4797 183.735 94.405C184.085 94.3257 184.472 94.1927 184.897 94.006V94.657C184.524 94.825 184.15 94.9463 183.777 95.021C183.404 95.1003 182.974 95.14 182.489 95.14C181.719 95.14 181.073 94.9813 180.55 94.664C180.032 94.342 179.64 93.8893 179.374 93.306C179.113 92.7227 178.982 92.0413 178.982 91.262C178.982 90.5013 179.108 89.8177 179.36 89.211C179.617 88.6043 179.99 88.126 180.48 87.776C180.975 87.4213 181.581 87.244 182.3 87.244ZM182.293 87.853C181.565 87.853 180.975 88.0957 180.522 88.581C180.074 89.0617 179.81 89.757 179.731 90.667H184.47C184.47 90.1117 184.391 89.6217 184.232 89.197C184.073 88.7723 183.833 88.4433 183.511 88.21C183.194 87.972 182.788 87.853 182.293 87.853ZM191.353 87.258C191.554 87.258 191.743 87.2697 191.92 87.293C192.097 87.3163 192.263 87.349 192.417 87.391L192.305 88.042C192.151 88 191.995 87.9697 191.836 87.951C191.677 87.9277 191.507 87.916 191.325 87.916C190.966 87.916 190.644 87.9837 190.359 88.119C190.079 88.2543 189.841 88.448 189.645 88.7C189.449 88.952 189.3 89.2553 189.197 89.61C189.094 89.9647 189.043 90.3613 189.043 90.8V95H188.329V87.391H188.938L189.008 88.826H189.05C189.167 88.532 189.33 88.2683 189.54 88.035C189.755 87.797 190.014 87.608 190.317 87.468C190.62 87.328 190.966 87.258 191.353 87.258ZM197.816 87.244C198.465 87.244 199.004 87.3957 199.433 87.699C199.867 88.0023 200.189 88.4177 200.399 88.945C200.614 89.4723 200.721 90.0767 200.721 90.758V91.269H195.226C195.226 92.3143 195.466 93.117 195.947 93.677C196.432 94.237 197.125 94.517 198.026 94.517C198.497 94.517 198.906 94.4797 199.251 94.405C199.601 94.3257 199.988 94.1927 200.413 94.006V94.657C200.04 94.825 199.666 94.9463 199.293 95.021C198.92 95.1003 198.49 95.14 198.005 95.14C197.235 95.14 196.589 94.9813 196.066 94.664C195.548 94.342 195.156 93.8893 194.89 93.306C194.629 92.7227 194.498 92.0413 194.498 91.262C194.498 90.5013 194.624 89.8177 194.876 89.211C195.133 88.6043 195.506 88.126 195.996 87.776C196.491 87.4213 197.097 87.244 197.816 87.244ZM197.809 87.853C197.081 87.853 196.491 88.0957 196.038 88.581C195.59 89.0617 195.326 89.757 195.247 90.667H199.986C199.986 90.1117 199.907 89.6217 199.748 89.197C199.589 88.7723 199.349 88.4433 199.027 88.21C198.71 87.972 198.304 87.853 197.809 87.853ZM206.89 95.14C206.134 95.14 205.495 94.9837 204.972 94.671C204.454 94.3537 204.062 93.9033 203.796 93.32C203.535 92.732 203.404 92.0367 203.404 91.234C203.404 90.3987 203.556 89.6847 203.859 89.092C204.162 88.4947 204.589 88.0373 205.14 87.72C205.691 87.4027 206.337 87.244 207.079 87.244C207.443 87.244 207.781 87.2767 208.094 87.342C208.407 87.4073 208.689 87.4983 208.941 87.615L208.752 88.238C208.491 88.1213 208.213 88.0327 207.919 87.972C207.625 87.9113 207.343 87.881 207.072 87.881C206.447 87.881 205.915 88.0187 205.476 88.294C205.042 88.5647 204.708 88.952 204.475 89.456C204.246 89.9553 204.132 90.5457 204.132 91.227C204.132 91.8663 204.23 92.4333 204.426 92.928C204.622 93.418 204.923 93.8053 205.329 94.09C205.735 94.37 206.255 94.51 206.89 94.51C207.259 94.51 207.609 94.4727 207.94 94.398C208.276 94.3233 208.582 94.2277 208.857 94.111V94.755C208.61 94.867 208.323 94.958 207.996 95.028C207.674 95.1027 207.305 95.14 206.89 95.14ZM212.387 84.108V87.664C212.387 87.8693 212.382 88.0607 212.373 88.238C212.368 88.4153 212.359 88.595 212.345 88.777H212.394C212.52 88.4877 212.7 88.2287 212.933 88C213.171 87.7713 213.463 87.5893 213.808 87.454C214.158 87.3187 214.562 87.251 215.019 87.251C215.598 87.251 216.083 87.3513 216.475 87.552C216.872 87.748 217.173 88.049 217.378 88.455C217.583 88.861 217.686 89.3837 217.686 90.023V95H216.986V90.065C216.986 89.309 216.813 88.7537 216.468 88.399C216.123 88.0443 215.621 87.867 214.963 87.867C214.403 87.867 213.932 87.9767 213.549 88.196C213.166 88.4107 212.877 88.7373 212.681 89.176C212.485 89.61 212.387 90.1537 212.387 90.807V95H211.68V84.108H212.387ZM227.488 91.185C227.488 91.773 227.416 92.3097 227.271 92.795C227.126 93.2757 226.912 93.691 226.627 94.041C226.342 94.391 225.988 94.6617 225.563 94.853C225.143 95.0443 224.653 95.14 224.093 95.14C223.561 95.14 223.087 95.0467 222.672 94.86C222.257 94.6687 221.904 94.398 221.615 94.048C221.33 93.698 221.113 93.2827 220.964 92.802C220.815 92.3167 220.74 91.7777 220.74 91.185C220.74 90.3683 220.875 89.666 221.146 89.078C221.421 88.4853 221.813 88.0327 222.322 87.72C222.835 87.4027 223.449 87.244 224.163 87.244C224.9 87.244 225.514 87.412 226.004 87.748C226.499 88.0793 226.87 88.5413 227.117 89.134C227.364 89.7267 227.488 90.4103 227.488 91.185ZM221.468 91.185C221.468 91.8523 221.564 92.4357 221.755 92.935C221.946 93.4343 222.236 93.824 222.623 94.104C223.015 94.384 223.51 94.524 224.107 94.524C224.718 94.524 225.22 94.384 225.612 94.104C226.004 93.824 226.293 93.432 226.48 92.928C226.667 92.424 226.76 91.843 226.76 91.185C226.76 90.5457 226.671 89.9763 226.494 89.477C226.317 88.9777 226.037 88.5857 225.654 88.301C225.271 88.0117 224.772 87.867 224.156 87.867C223.274 87.867 222.604 88.161 222.147 88.749C221.694 89.337 221.468 90.149 221.468 91.185ZM235.372 93.005C235.372 93.4577 235.258 93.845 235.029 94.167C234.805 94.4843 234.476 94.727 234.042 94.895C233.608 95.0583 233.074 95.14 232.439 95.14C231.912 95.14 231.44 95.0933 231.025 95C230.61 94.9067 230.262 94.7923 229.982 94.657V93.957C230.332 94.1297 230.719 94.2697 231.144 94.377C231.569 94.4843 232.005 94.538 232.453 94.538C233.237 94.538 233.802 94.405 234.147 94.139C234.492 93.873 234.665 93.509 234.665 93.047C234.665 92.7437 234.579 92.494 234.406 92.298C234.238 92.0973 233.995 91.9247 233.678 91.78C233.361 91.6353 232.978 91.4883 232.53 91.339C232.063 91.1803 231.648 91.024 231.284 90.87C230.925 90.7113 230.642 90.5037 230.437 90.247C230.232 89.9857 230.129 89.631 230.129 89.183C230.129 88.5717 230.374 88.0957 230.864 87.755C231.354 87.4143 232.012 87.244 232.838 87.244C233.295 87.244 233.72 87.2883 234.112 87.377C234.509 87.461 234.868 87.5707 235.19 87.706L234.938 88.308C234.649 88.1727 234.315 88.063 233.937 87.979C233.559 87.895 233.181 87.853 232.803 87.853C232.182 87.853 231.697 87.9627 231.347 88.182C230.997 88.4013 230.822 88.7233 230.822 89.148C230.822 89.4747 230.906 89.7313 231.074 89.918C231.242 90.1 231.482 90.254 231.795 90.38C232.108 90.5013 232.479 90.6367 232.908 90.786C233.351 90.94 233.76 91.101 234.133 91.269C234.511 91.437 234.812 91.654 235.036 91.92C235.26 92.186 235.372 92.5477 235.372 93.005ZM246.093 87.258C246.294 87.258 246.483 87.2697 246.66 87.293C246.837 87.3163 247.003 87.349 247.157 87.391L247.045 88.042C246.891 88 246.735 87.9697 246.576 87.951C246.417 87.9277 246.247 87.916 246.065 87.916C245.706 87.916 245.384 87.9837 245.099 88.119C244.819 88.2543 244.581 88.448 244.385 88.7C244.189 88.952 244.04 89.2553 243.937 89.61C243.834 89.9647 243.783 90.3613 243.783 90.8V95H243.069V87.391H243.678L243.748 88.826H243.79C243.907 88.532 244.07 88.2683 244.28 88.035C244.495 87.797 244.754 87.608 245.057 87.468C245.36 87.328 245.706 87.258 246.093 87.258ZM252.556 87.244C253.205 87.244 253.744 87.3957 254.173 87.699C254.607 88.0023 254.929 88.4177 255.139 88.945C255.354 89.4723 255.461 90.0767 255.461 90.758V91.269H249.966C249.966 92.3143 250.206 93.117 250.687 93.677C251.172 94.237 251.865 94.517 252.766 94.517C253.237 94.517 253.646 94.4797 253.991 94.405C254.341 94.3257 254.728 94.1927 255.153 94.006V94.657C254.78 94.825 254.406 94.9463 254.033 95.021C253.66 95.1003 253.23 95.14 252.745 95.14C251.975 95.14 251.329 94.9813 250.806 94.664C250.288 94.342 249.896 93.8893 249.63 93.306C249.369 92.7227 249.238 92.0413 249.238 91.262C249.238 90.5013 249.364 89.8177 249.616 89.211C249.873 88.6043 250.246 88.126 250.736 87.776C251.231 87.4213 251.837 87.244 252.556 87.244ZM252.549 87.853C251.821 87.853 251.231 88.0957 250.778 88.581C250.33 89.0617 250.066 89.757 249.987 90.667H254.726C254.726 90.1117 254.647 89.6217 254.488 89.197C254.329 88.7723 254.089 88.4433 253.767 88.21C253.45 87.972 253.044 87.853 252.549 87.853ZM263.338 93.005C263.338 93.4577 263.224 93.845 262.995 94.167C262.771 94.4843 262.442 94.727 262.008 94.895C261.574 95.0583 261.04 95.14 260.405 95.14C259.878 95.14 259.406 95.0933 258.991 95C258.576 94.9067 258.228 94.7923 257.948 94.657V93.957C258.298 94.1297 258.685 94.2697 259.11 94.377C259.535 94.4843 259.971 94.538 260.419 94.538C261.203 94.538 261.768 94.405 262.113 94.139C262.458 93.873 262.631 93.509 262.631 93.047C262.631 92.7437 262.545 92.494 262.372 92.298C262.204 92.0973 261.961 91.9247 261.644 91.78C261.327 91.6353 260.944 91.4883 260.496 91.339C260.029 91.1803 259.614 91.024 259.25 90.87C258.891 90.7113 258.608 90.5037 258.403 90.247C258.198 89.9857 258.095 89.631 258.095 89.183C258.095 88.5717 258.34 88.0957 258.83 87.755C259.32 87.4143 259.978 87.244 260.804 87.244C261.261 87.244 261.686 87.2883 262.078 87.377C262.475 87.461 262.834 87.5707 263.156 87.706L262.904 88.308C262.615 88.1727 262.281 88.063 261.903 87.979C261.525 87.895 261.147 87.853 260.769 87.853C260.148 87.853 259.663 87.9627 259.313 88.182C258.963 88.4013 258.788 88.7233 258.788 89.148C258.788 89.4747 258.872 89.7313 259.04 89.918C259.208 90.1 259.448 90.254 259.761 90.38C260.074 90.5013 260.445 90.6367 260.874 90.786C261.317 90.94 261.726 91.101 262.099 91.269C262.477 91.437 262.778 91.654 263.002 91.92C263.226 92.186 263.338 92.5477 263.338 93.005ZM269.164 87.244C269.813 87.244 270.352 87.3957 270.781 87.699C271.215 88.0023 271.537 88.4177 271.747 88.945C271.962 89.4723 272.069 90.0767 272.069 90.758V91.269H266.574C266.574 92.3143 266.814 93.117 267.295 93.677C267.78 94.237 268.473 94.517 269.374 94.517C269.845 94.517 270.254 94.4797 270.599 94.405C270.949 94.3257 271.336 94.1927 271.761 94.006V94.657C271.388 94.825 271.014 94.9463 270.641 95.021C270.268 95.1003 269.838 95.14 269.353 95.14C268.583 95.14 267.937 94.9813 267.414 94.664C266.896 94.342 266.504 93.8893 266.238 93.306C265.977 92.7227 265.846 92.0413 265.846 91.262C265.846 90.5013 265.972 89.8177 266.224 89.211C266.481 88.6043 266.854 88.126 267.344 87.776C267.839 87.4213 268.445 87.244 269.164 87.244ZM269.157 87.853C268.429 87.853 267.839 88.0957 267.386 88.581C266.938 89.0617 266.674 89.757 266.595 90.667H271.334C271.334 90.1117 271.255 89.6217 271.096 89.197C270.937 88.7723 270.697 88.4433 270.375 88.21C270.058 87.972 269.652 87.853 269.157 87.853ZM278.217 87.258C278.418 87.258 278.607 87.2697 278.784 87.293C278.961 87.3163 279.127 87.349 279.281 87.391L279.169 88.042C279.015 88 278.859 87.9697 278.7 87.951C278.541 87.9277 278.371 87.916 278.189 87.916C277.83 87.916 277.508 87.9837 277.223 88.119C276.943 88.2543 276.705 88.448 276.509 88.7C276.313 88.952 276.164 89.2553 276.061 89.61C275.958 89.9647 275.907 90.3613 275.907 90.8V95H275.193V87.391H275.802L275.872 88.826H275.914C276.031 88.532 276.194 88.2683 276.404 88.035C276.619 87.797 276.878 87.608 277.181 87.468C277.484 87.328 277.83 87.258 278.217 87.258ZM283.455 95L280.536 87.391H281.285L283.238 92.578C283.359 92.8907 283.467 93.1917 283.56 93.481C283.658 93.7657 283.74 94.0247 283.805 94.258H283.84C283.915 94.0247 283.999 93.7633 284.092 93.474C284.19 93.1847 284.297 92.886 284.414 92.578L286.367 87.391H287.123L284.197 95H283.455ZM292.074 87.258C292.909 87.258 293.535 87.468 293.95 87.888C294.365 88.308 294.573 88.9777 294.573 89.897V95H294.027L293.901 93.67H293.859C293.696 93.9547 293.497 94.209 293.264 94.433C293.031 94.6523 292.744 94.825 292.403 94.951C292.067 95.077 291.656 95.14 291.171 95.14C290.681 95.14 290.261 95.0583 289.911 94.895C289.566 94.7317 289.297 94.4937 289.106 94.181C288.919 93.8683 288.826 93.488 288.826 93.04C288.826 92.284 289.139 91.71 289.764 91.318C290.389 90.9213 291.288 90.6973 292.459 90.646L293.873 90.576V90.023C293.873 89.2437 293.719 88.6883 293.411 88.357C293.103 88.0257 292.648 87.86 292.046 87.86C291.654 87.86 291.276 87.9113 290.912 88.014C290.553 88.112 290.186 88.2543 289.813 88.441L289.589 87.853C289.953 87.6803 290.343 87.538 290.758 87.426C291.178 87.314 291.617 87.258 292.074 87.258ZM293.866 91.129L292.536 91.185C291.57 91.2317 290.835 91.4043 290.331 91.703C289.827 92.0017 289.575 92.4497 289.575 93.047C289.575 93.5277 289.724 93.8963 290.023 94.153C290.326 94.4097 290.746 94.538 291.283 94.538C292.118 94.538 292.755 94.3 293.194 93.824C293.637 93.348 293.861 92.6993 293.866 91.878V91.129ZM300.798 95.14C299.757 95.14 298.964 94.8133 298.418 94.16C297.877 93.502 297.606 92.5453 297.606 91.29C297.606 89.974 297.893 88.9707 298.467 88.28C299.041 87.5893 299.841 87.244 300.868 87.244C301.307 87.244 301.687 87.3117 302.009 87.447C302.336 87.5823 302.609 87.7667 302.828 88C303.052 88.2287 303.225 88.49 303.346 88.784H303.402C303.383 88.5367 303.369 88.2707 303.36 87.986C303.351 87.7013 303.346 87.44 303.346 87.202V84.108H304.053V95H303.479L303.388 93.607H303.346C303.22 93.887 303.045 94.1437 302.821 94.377C302.602 94.6103 302.326 94.797 301.995 94.937C301.664 95.0723 301.265 95.14 300.798 95.14ZM300.875 94.524C301.771 94.524 302.408 94.2463 302.786 93.691C303.164 93.131 303.353 92.333 303.353 91.297V91.185C303.353 90.1117 303.164 89.2903 302.786 88.721C302.408 88.147 301.792 87.86 300.938 87.86C300.093 87.86 299.447 88.154 298.999 88.742C298.556 89.33 298.334 90.184 298.334 91.304C298.334 92.3587 298.542 93.159 298.957 93.705C299.377 94.251 300.016 94.524 300.875 94.524ZM313.918 91.185C313.918 91.773 313.846 92.3097 313.701 92.795C313.556 93.2757 313.342 93.691 313.057 94.041C312.772 94.391 312.418 94.6617 311.993 94.853C311.573 95.0443 311.083 95.14 310.523 95.14C309.991 95.14 309.517 95.0467 309.102 94.86C308.687 94.6687 308.334 94.398 308.045 94.048C307.76 93.698 307.543 93.2827 307.394 92.802C307.245 92.3167 307.17 91.7777 307.17 91.185C307.17 90.3683 307.305 89.666 307.576 89.078C307.851 88.4853 308.243 88.0327 308.752 87.72C309.265 87.4027 309.879 87.244 310.593 87.244C311.33 87.244 311.944 87.412 312.434 87.748C312.929 88.0793 313.3 88.5413 313.547 89.134C313.794 89.7267 313.918 90.4103 313.918 91.185ZM307.898 91.185C307.898 91.8523 307.994 92.4357 308.185 92.935C308.376 93.4343 308.666 93.824 309.053 94.104C309.445 94.384 309.94 94.524 310.537 94.524C311.148 94.524 311.65 94.384 312.042 94.104C312.434 93.824 312.723 93.432 312.91 92.928C313.097 92.424 313.19 91.843 313.19 91.185C313.19 90.5457 313.101 89.9763 312.924 89.477C312.747 88.9777 312.467 88.5857 312.084 88.301C311.701 88.0117 311.202 87.867 310.586 87.867C309.704 87.867 309.034 88.161 308.577 88.749C308.124 89.337 307.898 90.149 307.898 91.185ZM321.802 93.005C321.802 93.4577 321.688 93.845 321.459 94.167C321.235 94.4843 320.906 94.727 320.472 94.895C320.038 95.0583 319.504 95.14 318.869 95.14C318.342 95.14 317.87 95.0933 317.455 95C317.04 94.9067 316.692 94.7923 316.412 94.657V93.957C316.762 94.1297 317.149 94.2697 317.574 94.377C317.999 94.4843 318.435 94.538 318.883 94.538C319.667 94.538 320.232 94.405 320.577 94.139C320.922 93.873 321.095 93.509 321.095 93.047C321.095 92.7437 321.009 92.494 320.836 92.298C320.668 92.0973 320.425 91.9247 320.108 91.78C319.791 91.6353 319.408 91.4883 318.96 91.339C318.493 91.1803 318.078 91.024 317.714 90.87C317.355 90.7113 317.072 90.5037 316.867 90.247C316.662 89.9857 316.559 89.631 316.559 89.183C316.559 88.5717 316.804 88.0957 317.294 87.755C317.784 87.4143 318.442 87.244 319.268 87.244C319.725 87.244 320.15 87.2883 320.542 87.377C320.939 87.461 321.298 87.5707 321.62 87.706L321.368 88.308C321.079 88.1727 320.745 88.063 320.367 87.979C319.989 87.895 319.611 87.853 319.233 87.853C318.612 87.853 318.127 87.9627 317.777 88.182C317.427 88.4013 317.252 88.7233 317.252 89.148C317.252 89.4747 317.336 89.7313 317.504 89.918C317.672 90.1 317.912 90.254 318.225 90.38C318.538 90.5013 318.909 90.6367 319.338 90.786C319.781 90.94 320.19 91.101 320.563 91.269C320.941 91.437 321.242 91.654 321.466 91.92C321.69 92.186 321.802 92.5477 321.802 93.005Z" fill="white"/>
<defs>
<clipPath id="clip0_40_1004">
<rect width="326.429" height="67.537" fill="white" transform="translate(0 1.87598)"/>
</clipPath>
<clipPath id="clip1_40_1004">
<rect width="54.4048" height="56.2808" fill="white" transform="translate(362.073 7.50415)"/>
</clipPath>
</defs>
</svg>
