<svg width="15" height="12" viewBox="0 0 15 12" fill="none" xmlns="http://www.w3.org/2000/svg">
<g clip-path="url(#clip0_34_540)">
<path d="M3.18 8.64H0.2C0.09 8.64 0 8.73 0 8.84V11.72C0 11.83 0.09 11.92 0.2 11.92H3.18C3.29 11.92 3.38 11.83 3.38 11.72V8.84C3.38 8.73 3.29 8.64 3.18 8.64ZM0.2 7.55H6.96C7.07 7.55 7.16 7.46 7.16 7.35V4.47C7.16 4.36 7.07 4.27 6.96 4.27H0.2C0.09 4.27 0 4.36 0 4.47V7.35C0 7.46 0.09 7.55 0.2 7.55ZM0.2 3.28H3.18C3.29 3.28 3.38 3.19 3.38 3.08V0.2C3.38 0.09 3.29 0 3.18 0H0.2C0.09 0 0 0.09 0 0.2V3.08C0 3.19 0.09 3.28 0.2 3.28ZM14.71 0H11.53C11.42 0 11.33 0.09 11.33 0.2V3.08C11.33 3.19 11.42 3.28 11.53 3.28H14.71C14.82 3.28 14.91 3.19 14.91 3.08V0.2C14.91 0.09 14.82 0 14.71 0ZM14.71 4.27H8.35C8.24 4.27 8.15 4.36 8.15 4.47V7.35C8.15 7.46 8.24 7.55 8.35 7.55H14.71C14.82 7.55 14.91 7.46 14.91 7.35V4.47C14.91 4.36 14.82 4.27 14.71 4.27ZM10.14 8.64H4.57C4.46 8.64 4.37 8.73 4.37 8.84V11.72C4.37 11.83 4.46 11.92 4.57 11.92H10.14C10.25 11.92 10.34 11.83 10.34 11.72V8.84C10.34 8.73 10.25 8.64 10.14 8.64Z" fill="#3D464F"/>
<path d="M10.14 0H4.57C4.46 0 4.37 0.09 4.37 0.2V3.08C4.37 3.19 4.46 3.28 4.57 3.28H10.14C10.25 3.28 10.34 3.19 10.34 3.08V0.2C10.34 0.09 10.25 0 10.14 0ZM14.71 8.64H11.53C11.42 8.64 11.33 8.73 11.33 8.84V11.72C11.33 11.83 11.42 11.92 11.53 11.92H14.71C14.82 11.92 14.91 11.83 14.91 11.72V8.84C14.91 8.73 14.82 8.64 14.71 8.64Z" fill="#3D464F"/>
</g>
<defs>
<clipPath id="clip0_34_540">
<rect width="14.91" height="11.92" fill="white"/>
</clipPath>
</defs>
</svg>
