<svg width="14" height="14" viewBox="0 0 14 14" fill="none" xmlns="http://www.w3.org/2000/svg">
<g id="Capa_1" clip-path="url(#clip0_34_550)">
<path id="Vector" fill-rule="evenodd" clip-rule="evenodd" d="M0 0.11V0H4.8V7.13H12.72C12.72 7.74 12.6 8.32 12.34 8.86C11.93 9.69 11.28 10.28 10.46 10.69C10.38 10.73 10.35 10.78 10.35 10.87C10.35 11.44 10.35 12.01 10.35 12.59V12.72H11.93V13.51H3.22V12.71H4.78L4.8 12.69C4.8 12.07 4.8 11.44 4.8 10.82C4.8 10.78 4.76 10.74 4.72 10.72C4.5 10.58 4.27 10.47 4.06 10.31C3.19 9.67 2.63 8.82 2.47 7.74C2.44 7.54 2.43 7.33 2.41 7.12H0.89C0.89 7.07 0.87 7.02 0.87 6.98C0.75 6.03 0.64 5.09 0.52 4.14C0.38 3.04 0.24 1.93 0.1 0.82C0.07 0.58 0.03 0.34 0 0.11ZM2.43 3.16H3.21V1.6H2.43V3.16Z" fill="#3D464F"/>
<path id="Vector_2" fill-rule="evenodd" clip-rule="evenodd" d="M13.52 5.67C13.52 5.67 13.5 5.72 13.49 5.74C13.38 6.1 13.09 6.32 12.71 6.33C11.82 6.33 10.93 6.33 10.04 6.33H5.59999C5.59999 6.22 5.59999 6.11 5.59999 6C5.59999 5.82 5.58999 5.63 5.59999 5.45C5.63999 5.05 5.97 4.75 6.38 4.75C6.84 4.75 7.29999 4.75 7.76999 4.75C9.35999 4.75 10.95 4.75 12.55 4.75C12.99 4.75 13.37 4.88 13.52 5.41V5.67Z" fill="#3D464F"/>
</g>
<defs>
<clipPath id="clip0_34_550">
<rect width="13.52" height="13.51" fill="white"/>
</clipPath>
</defs>
</svg>
