<svg width="21" height="21" viewBox="0 0 21 21" fill="none" xmlns="http://www.w3.org/2000/svg">
<g id="&#240;&#159;&#166;&#134; icon &#34;Times&#34;">
<path id="Vector" d="M13.9363 10.1055L19.6821 4.3597C20.3872 3.65461 20.3872 2.51143 19.6821 1.80578L18.4051 0.528814C17.7 -0.176271 16.5569 -0.176271 15.8512 0.528814L10.1055 6.27457L4.3597 0.528814C3.65461 -0.176271 2.51143 -0.176271 1.80578 0.528814L0.528814 1.80578C-0.176271 2.51086 -0.176271 3.65404 0.528814 4.3597L6.27457 10.1055L0.528814 15.8512C-0.176271 16.5563 -0.176271 17.6995 0.528814 18.4051L1.80578 19.6821C2.51086 20.3872 3.65461 20.3872 4.3597 19.6821L10.1055 13.9363L15.8512 19.6821C16.5563 20.3872 17.7 20.3872 18.4051 19.6821L19.6821 18.4051C20.3872 17.7 20.3872 16.5569 19.6821 15.8512L13.9363 10.1055Z" fill="white"/>
</g>
</svg>
