<svg width="16" height="16" viewBox="0 0 16 16" fill="none" xmlns="http://www.w3.org/2000/svg">
<g id="material-symbols:alternate-email">
<path id="Vector" d="M8.00016 14.6666C7.08905 14.6666 6.22794 14.4915 5.41683 14.1413C4.60572 13.7911 3.89727 13.3133 3.2915 12.708C2.68616 12.1026 2.20839 11.3944 1.85816 10.5833C1.50794 9.7722 1.33305 8.91109 1.3335 7.99998C1.3335 7.07776 1.50861 6.21376 1.85883 5.40798C2.20905 4.6022 2.68683 3.89687 3.29216 3.29198C3.8975 2.6862 4.6055 2.20842 5.41616 1.85865C6.22683 1.50887 7.08816 1.33376 8.00016 1.33331C8.92239 1.33331 9.78639 1.50842 10.5922 1.85865C11.3979 2.20887 12.1033 2.68665 12.7082 3.29198C13.3139 3.89731 13.7917 4.60287 14.1415 5.40865C14.4913 6.21442 14.6664 7.0782 14.6668 7.99998V8.96665C14.6668 9.6222 14.4419 10.1806 13.9922 10.642C13.5424 11.1033 12.9895 11.3338 12.3335 11.3333C11.9335 11.3333 11.5613 11.2444 11.2168 11.0666C10.8724 10.8889 10.5891 10.6555 10.3668 10.3666C10.0668 10.6666 9.71394 10.9029 9.30816 11.0753C8.90239 11.2478 8.46639 11.3338 8.00016 11.3333C7.07794 11.3333 6.29172 11.0082 5.6415 10.358C4.99127 9.70776 4.66639 8.92176 4.66683 7.99998C4.66683 7.07776 4.99194 6.29153 5.64216 5.64131C6.29239 4.99109 7.07839 4.6662 8.00016 4.66665C8.92239 4.66665 9.70861 4.99176 10.3588 5.64198C11.0091 6.2922 11.3339 7.0782 11.3335 7.99998V8.96665C11.3335 9.28887 11.4335 9.54153 11.6335 9.72465C11.8335 9.90776 12.0668 9.99953 12.3335 9.99998C12.6002 9.99998 12.8335 9.9082 13.0335 9.72465C13.2335 9.54109 13.3335 9.28842 13.3335 8.96665V7.99998C13.3335 6.54442 12.8084 5.29153 11.7582 4.24131C10.7079 3.19109 9.45527 2.6662 8.00016 2.66665C6.54461 2.66665 5.29172 3.19176 4.2415 4.24198C3.19127 5.2922 2.66639 6.54487 2.66683 7.99998C2.66683 9.45553 3.19194 10.7084 4.24216 11.7586C5.29239 12.8089 6.54505 13.3338 8.00016 13.3333H11.3335V14.6666H8.00016ZM8.00016 9.99998C8.55572 9.99998 9.02794 9.80553 9.41683 9.41665C9.80572 9.02776 10.0002 8.55553 10.0002 7.99998C10.0002 7.44442 9.80572 6.9722 9.41683 6.58331C9.02794 6.19442 8.55572 5.99998 8.00016 5.99998C7.44461 5.99998 6.97239 6.19442 6.5835 6.58331C6.19461 6.9722 6.00016 7.44442 6.00016 7.99998C6.00016 8.55553 6.19461 9.02776 6.5835 9.41665C6.97239 9.80553 7.44461 9.99998 8.00016 9.99998Z" fill="#EF7D67"/>
</g>
</svg>
