<svg width="50" height="50" viewBox="0 0 50 50" fill="none" xmlns="http://www.w3.org/2000/svg">
<g id="clarity:error-standard-line" clip-path="url(#clip0_1211_908)">
<path id="Vector" d="M25.0001 38.0417C26.0202 38.0417 26.8473 37.2146 26.8473 36.1944C26.8473 35.1743 26.0202 34.3472 25.0001 34.3472C23.9799 34.3472 23.1528 35.1743 23.1528 36.1944C23.1528 37.2146 23.9799 38.0417 25.0001 38.0417Z" fill="#143A60"/>
<path id="Vector_2" d="M25.0002 31.4028C24.6319 31.4028 24.2786 31.2565 24.0181 30.996C23.7577 30.7355 23.6113 30.3822 23.6113 30.0139V13.3472C23.6113 12.9789 23.7577 12.6256 24.0181 12.3651C24.2786 12.1047 24.6319 11.9583 25.0002 11.9583C25.3686 11.9583 25.7218 12.1047 25.9823 12.3651C26.2428 12.6256 26.3891 12.9789 26.3891 13.3472V30.0139C26.3891 30.3822 26.2428 30.7355 25.9823 30.996C25.7218 31.2565 25.3686 31.4028 25.0002 31.4028Z" fill="#143A60"/>
<path id="Vector_3" d="M25.0001 47.2222C20.6049 47.2222 16.3085 45.9189 12.6541 43.4771C8.99963 41.0353 6.15136 37.5647 4.46941 33.5041C2.78746 29.4435 2.34739 24.9754 3.20484 20.6647C4.06229 16.354 6.17875 12.3944 9.28658 9.28652C12.3944 6.17869 16.354 4.06222 20.6647 3.20477C24.9754 2.34733 29.4436 2.7874 33.5041 4.46935C37.5647 6.15129 41.0354 8.99957 43.4772 12.654C45.919 16.3084 47.2223 20.6049 47.2223 25C47.2223 30.8937 44.881 36.546 40.7135 40.7135C36.5461 44.881 30.8938 47.2222 25.0001 47.2222ZM25.0001 5.55556C21.1543 5.55556 17.3949 6.69596 14.1973 8.83254C10.9997 10.9691 8.50744 14.0059 7.03574 17.5589C5.56404 21.1119 5.17897 25.0216 5.92924 28.7934C6.67951 32.5653 8.53141 36.0299 11.2508 38.7493C13.9701 41.4687 17.4348 43.3206 21.2066 44.0708C24.9785 44.8211 28.8881 44.436 32.4411 42.9643C35.9941 41.4926 39.0309 39.0004 41.1675 35.8028C43.3041 32.6051 44.4445 28.8458 44.4445 25C44.4445 19.843 42.3959 14.8972 38.7494 11.2507C35.1028 7.60416 30.1571 5.55556 25.0001 5.55556Z" fill="#143A60"/>
</g>
<defs>
<clipPath id="clip0_1211_908">
<rect width="50" height="50" fill="white"/>
</clipPath>
</defs>
</svg>
