<?xml version="1.0" encoding="UTF-8" standalone="no"?>
<!DOCTYPE svg PUBLIC "-//W3C//DTD SVG 1.1//EN" "http://www.w3.org/Graphics/SVG/1.1/DTD/svg11.dtd">
<svg width="13" height="13" viewBox="0 0 13 13" version="1.1" xmlns="http://www.w3.org/2000/svg" xmlns:xlink="http://www.w3.org/1999/xlink" xml:space="preserve" xmlns:serif="http://www.serif.com/" style="fill-rule:evenodd;clip-rule:evenodd;stroke-linejoin:round;stroke-miterlimit:2;">
    <rect id="Artboard1" x="0" y="0" width="12.227" height="12.184" style="fill:none;"/>
    <g>
        <path d="M6.04,3.7c-0.69,-0 -1.24,0.56 -1.24,1.24c0,0.68 0.56,1.24 1.24,1.24c0.68,-0 1.24,-0.56 1.24,-1.24c0,-0.68 -0.56,-1.24 -1.24,-1.24Z" style="fill:#3d464f;fill-rule:nonzero;"/>
        <path d="M6.113,0.062c-3.332,-0 -6.03,2.698 -6.03,6.03c0,3.332 2.698,6.03 6.03,6.03c3.333,0 6.031,-2.698 6.031,-6.03c-0,-3.332 -2.698,-6.03 -6.031,-6.03Zm2.232,5.98c-0.793,1.825 -2.261,3.591 -2.261,3.591c-0,-0 -1.478,-1.766 -2.271,-3.591c-0.159,-0.327 -0.238,-0.694 -0.238,-1.071c-0,-1.388 1.12,-2.509 2.509,-2.509c1.388,0 2.509,1.121 2.509,2.509c-0,0.387 -0.089,0.744 -0.248,1.071Z" style="fill:#3d464f;fill-rule:nonzero;"/>
    </g>
</svg>
