<svg width="16" height="16" viewBox="0 0 16 16" fill="none" xmlns="http://www.w3.org/2000/svg">
<g id="mdi:map-marker">
<path id="Vector" d="M8.00016 7.66667C7.55814 7.66667 7.13421 7.49107 6.82165 7.17851C6.50909 6.86595 6.3335 6.44203 6.3335 6C6.3335 5.55797 6.50909 5.13405 6.82165 4.82149C7.13421 4.50893 7.55814 4.33333 8.00016 4.33333C8.44219 4.33333 8.86611 4.50893 9.17867 4.82149C9.49123 5.13405 9.66683 5.55797 9.66683 6C9.66683 6.21887 9.62372 6.4356 9.53996 6.6378C9.4562 6.84001 9.33344 7.02375 9.17867 7.17851C9.02391 7.33327 8.84018 7.45604 8.63797 7.5398C8.43576 7.62356 8.21903 7.66667 8.00016 7.66667ZM8.00016 1.33333C6.76249 1.33333 5.5755 1.825 4.70033 2.70017C3.82516 3.57534 3.3335 4.76232 3.3335 6C3.3335 9.5 8.00016 14.6667 8.00016 14.6667C8.00016 14.6667 12.6668 9.5 12.6668 6C12.6668 4.76232 12.1752 3.57534 11.3 2.70017C10.4248 1.825 9.23784 1.33333 8.00016 1.33333Z" fill="#EF7D67"/>
</g>
</svg>
