<svg width="76" height="76" viewBox="0 0 76 76" fill="none" xmlns="http://www.w3.org/2000/svg">
<g id="material-symbols:play-circle-outline-rounded">
<path id="Vector" d="M33.725 49.875L49.1625 39.9792C49.9014 39.5042 50.2708 38.8445 50.2708 38C50.2708 37.1556 49.9014 36.4959 49.1625 36.0209L33.725 26.125C32.9333 25.5973 32.128 25.5572 31.3088 26.0047C30.4897 26.4523 30.0812 27.1521 30.0833 28.1042V47.8959C30.0833 48.8459 30.4929 49.5457 31.312 49.9954C32.1311 50.445 32.9355 50.4049 33.725 49.875ZM38 69.6667C33.6195 69.6667 29.5028 68.8349 25.65 67.1714C21.7972 65.5078 18.4458 63.2521 15.5958 60.4042C12.7458 57.5542 10.4901 54.2028 8.82868 50.35C7.16723 46.4973 6.33545 42.3806 6.33334 38C6.33334 33.6195 7.16512 29.5028 8.82868 25.65C10.4922 21.7973 12.748 18.4459 15.5958 15.5959C18.4458 12.7459 21.7972 10.4902 25.65 8.82871C29.5028 7.16726 33.6195 6.33549 38 6.33337C42.3806 6.33337 46.4972 7.16515 50.35 8.82871C54.2028 10.4923 57.5542 12.748 60.4042 15.5959C63.2542 18.4459 65.511 21.7973 67.1745 25.65C68.8381 29.5028 69.6688 33.6195 69.6667 38C69.6667 42.3806 68.8349 46.4973 67.1713 50.35C65.5078 54.2028 63.2521 57.5542 60.4042 60.4042C57.5542 63.2542 54.2028 65.511 50.35 67.1745C46.4972 68.8381 42.3806 69.6688 38 69.6667ZM38 63.3334C45.0722 63.3334 51.0625 60.8792 55.9708 55.9709C60.8792 51.0625 63.3333 45.0723 63.3333 38C63.3333 30.9278 60.8792 24.9375 55.9708 20.0292C51.0625 15.1209 45.0722 12.6667 38 12.6667C30.9278 12.6667 24.9375 15.1209 20.0292 20.0292C15.1208 24.9375 12.6667 30.9278 12.6667 38C12.6667 45.0723 15.1208 51.0625 20.0292 55.9709C24.9375 60.8792 30.9278 63.3334 38 63.3334Z" fill="white"/>
</g>
</svg>
