<svg width="19" height="16" viewBox="0 0 19 16" fill="none" xmlns="http://www.w3.org/2000/svg">
<path id="Vector" d="M15.7556 4.44444H3.3112C1.83564 4.44444 0.644531 5.63556 0.644531 7.11111V10.6667C0.644531 11.6444 1.44453 12.4444 2.42231 12.4444H4.20009V14.2222C4.20009 15.2 5.00009 16 5.97786 16H13.089C14.0668 16 14.8668 15.2 14.8668 14.2222V12.4444H16.6445C17.6223 12.4444 18.4223 11.6444 18.4223 10.6667V7.11111C18.4223 5.63556 17.2312 4.44444 15.7556 4.44444ZM12.2001 14.2222H6.86675C6.37786 14.2222 5.97786 13.8222 5.97786 13.3333V9.77778H13.089V13.3333C13.089 13.8222 12.689 14.2222 12.2001 14.2222ZM15.7556 8C15.2668 8 14.8668 7.6 14.8668 7.11111C14.8668 6.62222 15.2668 6.22222 15.7556 6.22222C16.2445 6.22222 16.6445 6.62222 16.6445 7.11111C16.6445 7.6 16.2445 8 15.7556 8ZM13.9779 0H5.08898C4.60009 0 4.20009 0.4 4.20009 0.888889V2.66667C4.20009 3.15556 4.60009 3.55556 5.08898 3.55556H13.9779C14.4668 3.55556 14.8668 3.15556 14.8668 2.66667V0.888889C14.8668 0.4 14.4668 0 13.9779 0Z" fill="#B9B9B9"/>
</svg>
