<svg width="19" height="13" viewBox="0 0 19 13" fill="none" xmlns="http://www.w3.org/2000/svg">
<g clip-path="url(#clip0_34_545)">
<path fill-rule="evenodd" clip-rule="evenodd" d="M0 6.87005C0.03 6.77005 0.05 6.67005 0.09 6.57005C0.33 5.81005 1.04 5.26005 1.84 5.25005C2.65 5.24005 3.47 5.25005 4.28 5.25005C8.17 5.25005 12.06 5.27005 15.95 5.25005C17.02 5.25005 17.87 5.96005 17.99 6.85005C17.99 6.85005 18 6.87005 18.01 6.88005V12.4701C18.01 12.4701 17.99 12.51 17.98 12.53C17.88 12.71 17.74 12.7801 17.56 12.7501C17.39 12.72 17.28 12.5801 17.26 12.3901C17.26 12.3001 17.26 12.2 17.26 12.11V11.2901H0.75C0.75 11.66 0.75 12.01 0.75 12.36C0.75 12.61 0.61 12.7501 0.4 12.7701C0.19 12.7901 0.08 12.65 0 12.48V6.89005V6.87005ZM0.76 10.49H17.26V9.77005H0.76V10.49Z" fill="#3D464F"/>
<path fill-rule="evenodd" clip-rule="evenodd" d="M14.36 4.5C14.62 4.34 14.66 4.16 14.59 3.93C14.51 3.64 14.45 3.34 14.36 3.05C14.21 2.58 13.83 2.27 13.33 2.26C12.5 2.25 11.68 2.24 10.85 2.26C10.2 2.27 9.76 2.75 9.74 3.43C9.74 3.58 9.74 3.73 9.74 3.89C9.74 4.12 9.73 4.35 10 4.51H7.98C8.25 4.36 8.25 4.13 8.24 3.9C8.22 3.62 8.24 3.33 8.17 3.07C8.06 2.61 7.65 2.29 7.18 2.28C6.32 2.27 5.46 2.27 4.6 2.28C4.17 2.28 3.77 2.59 3.64 3.01C3.53 3.36 3.45 3.71 3.37 4.06C3.33 4.25 3.42 4.39 3.61 4.5C3.55 4.5 3.51 4.51 3.48 4.51C2.98 4.51 2.48 4.51 1.99 4.51C1.63 4.51 1.5 4.38 1.5 4.03C1.5 3.34 1.5 2.65 1.5 1.95C1.51 0.81 2.3 0 3.44 0C7.15 0 10.86 0 14.57 0C15.71 0 16.5 0.8 16.51 1.94C16.51 2.63 16.51 3.32 16.51 4.01C16.51 4.36 16.38 4.5 16.02 4.5C15.49 4.5 14.96 4.5 14.37 4.5H14.36Z" fill="#3D464F"/>
</g>
<defs>
<clipPath id="clip0_34_545">
<rect width="18.01" height="12.75" fill="white"/>
</clipPath>
</defs>
</svg>
