<svg width="20" height="22" viewBox="0 0 20 22" fill="none" xmlns="http://www.w3.org/2000/svg">
<path id="Vector" d="M16.4779 15.5502C15.6756 15.5502 14.9579 15.8815 14.409 16.4006L6.88286 11.8173C6.93564 11.5633 6.97786 11.3092 6.97786 11.0442C6.97786 10.7791 6.93564 10.5251 6.88286 10.2711L14.3245 5.73193C14.8945 6.28414 15.644 6.62651 16.4779 6.62651C18.2301 6.62651 19.6445 5.14659 19.6445 3.31325C19.6445 1.47992 18.2301 0 16.4779 0C14.7256 0 13.3112 1.47992 13.3112 3.31325C13.3112 3.57831 13.3534 3.83233 13.4062 4.08635L5.96453 8.6255C5.39453 8.07329 4.64509 7.73092 3.8112 7.73092C2.05898 7.73092 0.644531 9.21084 0.644531 11.0442C0.644531 12.8775 2.05898 14.3574 3.8112 14.3574C4.64509 14.3574 5.39453 14.0151 5.96453 13.4629L13.4801 18.0572C13.4273 18.2892 13.3956 18.5321 13.3956 18.7751C13.3956 20.5532 14.7784 22 16.4779 22C18.1773 22 19.5601 20.5532 19.5601 18.7751C19.5601 16.997 18.1773 15.5502 16.4779 15.5502Z" fill="#B9B9B9"/>
</svg>
