<?xml version="1.0" encoding="UTF-8" standalone="no"?>
<!DOCTYPE svg PUBLIC "-//W3C//DTD SVG 1.1//EN" "http://www.w3.org/Graphics/SVG/1.1/DTD/svg11.dtd">
<svg width="100%" height="100%" viewBox="0 0 1225 321" version="1.1" xmlns="http://www.w3.org/2000/svg" xmlns:xlink="http://www.w3.org/1999/xlink" xml:space="preserve" xmlns:serif="http://www.serif.com/" style="fill-rule:evenodd;clip-rule:evenodd;stroke-linejoin:round;stroke-miterlimit:2;">
    <rect id="Artboard1" x="0" y="0" width="1224.45" height="320.093" style="fill:none;"/>
    <path d="M98.699,64.59c9.024,-0 16.317,3.509 21.879,10.527c5.562,7.019 8.343,17.307 8.343,30.867c0,9.071 -1.313,16.698 -3.939,22.881c-2.625,6.183 -6.254,10.85 -10.885,14.001c-4.631,3.151 -9.955,4.727 -15.971,4.727c-3.867,-0 -7.185,-0.49 -9.954,-1.468c-2.769,-0.979 -5.133,-2.244 -7.09,-3.796c-1.958,-1.552 -3.653,-3.211 -5.085,-4.977l-1.146,-0c0.382,1.909 0.669,3.867 0.86,5.872c0.191,2.005 0.286,3.963 0.286,5.873l0,32.298l-21.843,0l0,-115.301l17.761,-0l3.079,10.384l1.003,-0c1.432,-2.149 3.175,-4.13 5.228,-5.944c2.053,-1.814 4.524,-3.259 7.412,-4.333c2.889,-1.074 6.243,-1.611 10.062,-1.611Zm-7.018,17.474c-3.82,-0 -6.851,0.788 -9.095,2.363c-2.244,1.576 -3.879,3.939 -4.906,7.09c-1.026,3.151 -1.587,7.138 -1.683,11.96l0,2.364c0,5.156 0.489,9.524 1.468,13.105c0.979,3.581 2.626,6.302 4.942,8.164c2.315,1.862 5.502,2.793 9.56,2.793c3.343,0 6.088,-0.931 8.236,-2.793c2.149,-1.862 3.76,-4.595 4.834,-8.2c1.075,-3.604 1.612,-8.009 1.612,-13.213c-0,-7.83 -1.218,-13.726 -3.653,-17.689c-2.435,-3.963 -6.206,-5.944 -11.315,-5.944Z" style="fill:#fff;fill-rule:nonzero;"/>
    <path d="M188.577,64.59c1.099,-0 2.376,0.059 3.832,0.179c1.456,0.119 2.638,0.274 3.545,0.465l-1.647,20.482c-0.716,-0.238 -1.731,-0.417 -3.044,-0.537c-1.313,-0.119 -2.447,-0.179 -3.402,-0.179c-2.817,0 -5.55,0.358 -8.2,1.074c-2.65,0.717 -5.025,1.874 -7.126,3.474c-2.1,1.599 -3.759,3.7 -4.977,6.302c-1.217,2.602 -1.826,5.789 -1.826,9.561l-0,40.749l-21.843,0l0,-80.066l16.543,-0l3.223,13.463l1.074,0c1.576,-2.721 3.545,-5.216 5.909,-7.483c2.363,-2.268 5.061,-4.083 8.092,-5.443c3.032,-1.361 6.314,-2.041 9.847,-2.041Z" style="fill:#fff;fill-rule:nonzero;"/>
    <path d="M276.594,105.984c-0,6.684 -0.896,12.604 -2.686,17.761c-1.79,5.156 -4.392,9.513 -7.806,13.069c-3.414,3.557 -7.52,6.243 -12.318,8.057c-4.798,1.815 -10.205,2.722 -16.221,2.722c-5.634,-0 -10.802,-0.907 -15.505,-2.722c-4.703,-1.814 -8.785,-4.5 -12.246,-8.057c-3.462,-3.556 -6.135,-7.913 -8.021,-13.069c-1.886,-5.157 -2.829,-11.077 -2.829,-17.761c-0,-8.881 1.575,-16.4 4.726,-22.559c3.152,-6.159 7.64,-10.838 13.464,-14.037c5.825,-3.199 12.772,-4.798 20.841,-4.798c7.495,-0 14.144,1.599 19.945,4.798c5.801,3.199 10.36,7.878 13.678,14.037c3.319,6.159 4.978,13.678 4.978,22.559Zm-55.36,-0c0,5.252 0.573,9.668 1.719,13.249c1.146,3.581 2.936,6.278 5.371,8.092c2.435,1.815 5.61,2.722 9.525,2.722c3.868,-0 7.007,-0.907 9.418,-2.722c2.411,-1.814 4.177,-4.511 5.299,-8.092c1.122,-3.581 1.683,-7.997 1.683,-13.249c0,-5.3 -0.561,-9.704 -1.683,-13.213c-1.122,-3.51 -2.9,-6.147 -5.335,-7.914c-2.435,-1.767 -5.61,-2.65 -9.525,-2.65c-5.777,0 -9.966,1.982 -12.569,5.944c-2.602,3.963 -3.903,9.907 -3.903,17.833Z" style="fill:#fff;fill-rule:nonzero;"/>
    <path d="M336.608,64.59c9.023,-0 16.316,3.509 21.879,10.527c5.562,7.019 8.343,17.307 8.343,30.867c-0,9.071 -1.313,16.698 -3.939,22.881c-2.626,6.183 -6.255,10.85 -10.886,14.001c-4.631,3.151 -9.954,4.727 -15.97,4.727c-3.867,-0 -7.186,-0.49 -9.955,-1.468c-2.769,-0.979 -5.132,-2.244 -7.09,-3.796c-1.957,-1.552 -3.652,-3.211 -5.084,-4.977l-1.146,-0c0.382,1.909 0.668,3.867 0.859,5.872c0.191,2.005 0.287,3.963 0.287,5.873l-0,32.298l-21.843,0l-0,-115.301l17.76,-0l3.08,10.384l1.003,-0c1.432,-2.149 3.175,-4.13 5.228,-5.944c2.053,-1.814 4.523,-3.259 7.412,-4.333c2.888,-1.074 6.242,-1.611 10.062,-1.611Zm-7.019,17.474c-3.819,-0 -6.851,0.788 -9.095,2.363c-2.244,1.576 -3.879,3.939 -4.905,7.09c-1.027,3.151 -1.588,7.138 -1.683,11.96l-0,2.364c-0,5.156 0.489,9.524 1.468,13.105c0.978,3.581 2.626,6.302 4.941,8.164c2.316,1.862 5.503,2.793 9.561,2.793c3.342,0 6.087,-0.931 8.236,-2.793c2.148,-1.862 3.76,-4.595 4.834,-8.2c1.074,-3.604 1.611,-8.009 1.611,-13.213c0,-7.83 -1.217,-13.726 -3.652,-17.689c-2.435,-3.963 -6.207,-5.944 -11.316,-5.944Z" style="fill:#fff;fill-rule:nonzero;"/>
    <path d="M403.64,66.094l0,80.066l-21.842,0l-0,-80.066l21.842,-0Zm-10.885,-31.368c3.246,-0 6.039,0.752 8.379,2.256c2.339,1.504 3.509,4.309 3.509,8.415c0,4.058 -1.17,6.863 -3.509,8.414c-2.34,1.552 -5.133,2.328 -8.379,2.328c-3.295,-0 -6.099,-0.776 -8.415,-2.328c-2.316,-1.551 -3.473,-4.356 -3.473,-8.414c-0,-4.106 1.157,-6.911 3.473,-8.415c2.316,-1.504 5.12,-2.256 8.415,-2.256Z" style="fill:#fff;fill-rule:nonzero;"/>
    <path d="M451.838,64.59c7.4,-0 13.774,1.42 19.122,4.261c5.347,2.841 9.477,6.959 12.389,12.354c2.913,5.395 4.369,11.983 4.369,19.766l-0,10.599l-51.635,-0c0.238,6.159 2.088,10.993 5.55,14.502c3.461,3.509 8.271,5.264 14.43,5.264c5.109,-0 9.788,-0.525 14.037,-1.576c4.249,-1.05 8.618,-2.626 13.106,-4.726l-0,16.901c-3.963,1.957 -8.105,3.39 -12.425,4.297c-4.321,0.907 -9.561,1.361 -15.72,1.361c-8.021,-0 -15.123,-1.48 -21.306,-4.441c-6.183,-2.96 -11.029,-7.471 -14.538,-13.535c-3.509,-6.063 -5.264,-13.703 -5.264,-22.917c0,-9.358 1.588,-17.152 4.763,-23.383c3.175,-6.23 7.603,-10.909 13.284,-14.036c5.682,-3.128 12.295,-4.691 19.838,-4.691Zm0.143,15.54c-4.249,0 -7.77,1.361 -10.563,4.082c-2.793,2.722 -4.404,6.995 -4.834,12.82l30.652,-0c-0.048,-3.247 -0.633,-6.135 -1.755,-8.666c-1.122,-2.53 -2.793,-4.535 -5.013,-6.016c-2.22,-1.48 -5.049,-2.22 -8.487,-2.22Z" style="fill:#fff;fill-rule:nonzero;"/>
    <path d="M526.534,147.593c-8.929,-0 -16.198,-3.498 -21.807,-10.492c-5.61,-6.995 -8.415,-17.271 -8.415,-30.831c-0,-13.702 2.84,-24.075 8.522,-31.117c5.681,-7.042 13.106,-10.563 22.273,-10.563c3.819,-0 7.185,0.525 10.097,1.575c2.913,1.051 5.431,2.459 7.556,4.226c2.124,1.766 3.927,3.747 5.407,5.944l0.716,-0c-0.286,-1.528 -0.633,-3.784 -1.038,-6.768c-0.406,-2.984 -0.609,-6.052 -0.609,-9.203l-0,-25.638l21.914,-0l0,111.434l-16.758,0l-4.225,-10.384l-0.931,0c-1.385,2.196 -3.115,4.19 -5.192,5.98c-2.077,1.79 -4.548,3.211 -7.413,4.261c-2.864,1.05 -6.23,1.576 -10.097,1.576Zm7.663,-17.403c5.968,-0 10.181,-1.779 12.64,-5.335c2.459,-3.557 3.76,-8.917 3.903,-16.078l-0,-2.364c-0,-7.782 -1.194,-13.738 -3.581,-17.868c-2.387,-4.13 -6.827,-6.195 -13.321,-6.195c-4.822,0 -8.593,2.077 -11.315,6.231c-2.721,4.154 -4.082,10.146 -4.082,17.976c-0,7.83 1.373,13.726 4.118,17.689c2.745,3.963 6.624,5.944 11.638,5.944Z" style="fill:#fff;fill-rule:nonzero;"/>
    <path d="M623.717,64.446c10.742,0 18.978,2.34 24.707,7.019c5.729,4.679 8.594,11.793 8.594,21.341l0,53.354l-15.254,0l-4.226,-10.885l-0.572,-0c-2.292,2.864 -4.632,5.204 -7.019,7.018c-2.387,1.814 -5.132,3.151 -8.236,4.011c-3.103,0.859 -6.875,1.289 -11.315,1.289c-4.727,-0 -8.964,-0.907 -12.712,-2.722c-3.748,-1.814 -6.696,-4.595 -8.844,-8.343c-2.149,-3.748 -3.223,-8.51 -3.223,-14.287c-0,-8.499 2.984,-14.765 8.952,-18.8c5.968,-4.034 14.92,-6.266 26.856,-6.696l13.893,-0.429l0,-3.51c0,-4.201 -1.098,-7.281 -3.294,-9.238c-2.196,-1.958 -5.252,-2.936 -9.167,-2.936c-3.867,-0 -7.663,0.549 -11.387,1.647c-3.724,1.098 -7.448,2.483 -11.172,4.154l-7.233,-14.753c4.249,-2.244 9.012,-4.011 14.287,-5.3c5.276,-1.289 10.731,-1.934 16.365,-1.934Zm11.601,44.617l-8.45,0.287c-7.066,0.191 -11.972,1.456 -14.717,3.795c-2.746,2.34 -4.118,5.419 -4.118,9.239c-0,3.342 0.978,5.717 2.936,7.126c1.957,1.408 4.512,2.112 7.663,2.112c4.679,0 8.63,-1.384 11.852,-4.153c3.223,-2.77 4.834,-6.708 4.834,-11.817l0,-6.589Z" style="fill:#fff;fill-rule:nonzero;"/>
    <path d="M697.768,147.593c-8.929,-0 -16.198,-3.498 -21.808,-10.492c-5.609,-6.995 -8.414,-17.271 -8.414,-30.831c-0,-13.702 2.84,-24.075 8.522,-31.117c5.681,-7.042 13.106,-10.563 22.272,-10.563c3.82,-0 7.186,0.525 10.098,1.575c2.913,1.051 5.431,2.459 7.556,4.226c2.124,1.766 3.927,3.747 5.407,5.944l0.716,-0c-0.286,-1.528 -0.633,-3.784 -1.038,-6.768c-0.406,-2.984 -0.609,-6.052 -0.609,-9.203l-0,-25.638l21.914,-0l0,111.434l-16.758,0l-4.225,-10.384l-0.931,0c-1.385,2.196 -3.115,4.19 -5.192,5.98c-2.077,1.79 -4.548,3.211 -7.413,4.261c-2.864,1.05 -6.23,1.576 -10.097,1.576Zm7.662,-17.403c5.968,-0 10.182,-1.779 12.641,-5.335c2.459,-3.557 3.76,-8.917 3.903,-16.078l-0,-2.364c-0,-7.782 -1.194,-13.738 -3.581,-17.868c-2.387,-4.13 -6.827,-6.195 -13.321,-6.195c-4.822,0 -8.594,2.077 -11.315,6.231c-2.721,4.154 -4.082,10.146 -4.082,17.976c-0,7.83 1.373,13.726 4.118,17.689c2.745,3.963 6.624,5.944 11.637,5.944Z" style="fill:#fff;fill-rule:nonzero;"/>
    <path d="M795.165,64.59c7.401,-0 13.775,1.42 19.122,4.261c5.347,2.841 9.477,6.959 12.389,12.354c2.913,5.395 4.369,11.983 4.369,19.766l0,10.599l-51.635,-0c0.239,6.159 2.089,10.993 5.55,14.502c3.462,3.509 8.272,5.264 14.431,5.264c5.108,-0 9.787,-0.525 14.036,-1.576c4.25,-1.05 8.618,-2.626 13.106,-4.726l0,16.901c-3.963,1.957 -8.104,3.39 -12.425,4.297c-4.321,0.907 -9.561,1.361 -15.72,1.361c-8.021,-0 -15.123,-1.48 -21.306,-4.441c-6.183,-2.96 -11.029,-7.471 -14.538,-13.535c-3.509,-6.063 -5.264,-13.703 -5.264,-22.917c0,-9.358 1.588,-17.152 4.763,-23.383c3.175,-6.23 7.603,-10.909 13.285,-14.036c5.681,-3.128 12.294,-4.691 19.837,-4.691Zm0.144,15.54c-4.25,0 -7.771,1.361 -10.564,4.082c-2.793,2.722 -4.404,6.995 -4.834,12.82l30.652,-0c-0.048,-3.247 -0.633,-6.135 -1.755,-8.666c-1.122,-2.53 -2.793,-4.535 -5.013,-6.016c-2.22,-1.48 -5.049,-2.22 -8.486,-2.22Z" style="fill:#fff;fill-rule:nonzero;"/>
    <path d="M900.369,122.384c0,5.443 -1.277,10.038 -3.831,13.786c-2.554,3.748 -6.362,6.589 -11.423,8.522c-5.061,1.934 -11.363,2.901 -18.907,2.901c-5.586,-0 -10.372,-0.358 -14.359,-1.075c-3.986,-0.716 -8.009,-1.909 -12.067,-3.58l0,-18.048c4.345,1.958 9.012,3.569 14.001,4.834c4.989,1.266 9.37,1.898 13.142,1.898c4.249,0 7.293,-0.632 9.131,-1.898c1.838,-1.265 2.757,-2.924 2.757,-4.977c-0,-1.337 -0.37,-2.542 -1.11,-3.616c-0.74,-1.075 -2.328,-2.292 -4.763,-3.653c-2.435,-1.361 -6.254,-3.139 -11.458,-5.335c-5.013,-2.101 -9.131,-4.226 -12.354,-6.374c-3.223,-2.149 -5.61,-4.691 -7.162,-7.627c-1.551,-2.936 -2.327,-6.672 -2.327,-11.208c-0,-7.4 2.877,-12.975 8.63,-16.722c5.753,-3.748 13.452,-5.622 23.096,-5.622c4.965,-0 9.704,0.501 14.216,1.504c4.511,1.002 9.155,2.602 13.929,4.798l-6.589,15.755c-3.962,-1.718 -7.698,-3.127 -11.208,-4.225c-3.509,-1.098 -7.078,-1.647 -10.706,-1.647c-3.199,-0 -5.61,0.43 -7.233,1.289c-1.624,0.859 -2.435,2.172 -2.435,3.939c-0,1.289 0.417,2.435 1.253,3.437c0.835,1.003 2.459,2.113 4.87,3.331c2.411,1.217 5.956,2.781 10.635,4.69c4.535,1.862 8.474,3.808 11.816,5.837c3.342,2.029 5.921,4.536 7.735,7.52c1.814,2.984 2.721,6.839 2.721,11.566Z" style="fill:#fff;fill-rule:nonzero;"/>
    <rect x="187.499" y="201.687" width="11.074" height="52.225" style="fill:#fff;fill-rule:nonzero;"/>
    <path d="M263.335,253.912l-14.075,-0l-22.719,-39.508l-0.321,-0c0.095,1.643 0.178,3.298 0.25,4.965l0.428,9.966l0,24.577l-9.895,-0l0,-52.225l13.968,-0l22.683,39.115l0.25,0c-0.048,-1.619 -0.107,-3.227 -0.179,-4.822c-0.071,-1.596 -0.137,-3.192 -0.196,-4.787c-0.06,-1.596 -0.113,-3.191 -0.161,-4.787l0,-24.719l9.967,-0l-0,52.225Z" style="fill:#fff;fill-rule:nonzero;"/>
    <path d="M322.131,201.687l-17.754,52.225l-12.074,-0l-17.718,-52.225l11.181,-0l9.824,31.078c0.166,0.524 0.44,1.506 0.821,2.947c0.381,1.44 0.768,2.965 1.161,4.572c0.393,1.608 0.661,2.935 0.804,3.983c0.143,-1.048 0.399,-2.369 0.768,-3.965c0.369,-1.596 0.738,-3.114 1.107,-4.555c0.37,-1.44 0.637,-2.435 0.804,-2.982l9.895,-31.078l11.181,-0Z" style="fill:#fff;fill-rule:nonzero;"/>
    <path d="M363.924,253.912l-30.078,-0l0,-52.225l30.078,-0l-0,9.073l-19.004,-0l-0,11.467l17.682,-0l0,9.073l-17.682,0l-0,13.467l19.004,0l-0,9.145Z" style="fill:#fff;fill-rule:nonzero;"/>
    <path d="M398.787,201.687c4.739,-0 8.65,0.571 11.734,1.714c3.084,1.143 5.377,2.87 6.877,5.18c1.5,2.31 2.25,5.227 2.25,8.752c0,2.381 -0.452,4.465 -1.357,6.251c-0.905,1.786 -2.096,3.298 -3.572,4.537c-1.477,1.238 -3.072,2.25 -4.787,3.036l15.36,22.755l-12.288,-0l-12.467,-20.04l-5.894,-0l0,20.04l-11.074,-0l0,-52.225l15.218,-0Zm-0.786,9.073l-3.358,-0l0,14.11l3.572,0c3.668,0 6.293,-0.613 7.877,-1.84c1.584,-1.226 2.375,-3.03 2.375,-5.411c0,-2.477 -0.851,-4.239 -2.554,-5.287c-1.702,-1.048 -4.34,-1.572 -7.912,-1.572Z" style="fill:#fff;fill-rule:nonzero;"/>
    <path d="M468.621,239.409c0,3.096 -0.75,5.787 -2.25,8.073c-1.5,2.286 -3.685,4.049 -6.555,5.287c-2.87,1.238 -6.353,1.857 -10.449,1.857c-1.81,0 -3.578,-0.119 -5.304,-0.357c-1.727,-0.238 -3.382,-0.589 -4.966,-1.054c-1.583,-0.464 -3.09,-1.042 -4.519,-1.732l0,-10.288c2.477,1.095 5.049,2.084 7.716,2.965c2.668,0.881 5.311,1.322 7.931,1.322c1.81,-0 3.268,-0.239 4.376,-0.715c1.107,-0.476 1.911,-1.131 2.411,-1.965c0.5,-0.833 0.75,-1.786 0.75,-2.857c-0,-1.31 -0.441,-2.429 -1.322,-3.358c-0.881,-0.929 -2.089,-1.798 -3.626,-2.608c-1.536,-0.81 -3.268,-1.679 -5.197,-2.608c-1.215,-0.571 -2.536,-1.268 -3.965,-2.089c-1.429,-0.822 -2.786,-1.828 -4.072,-3.019c-1.286,-1.191 -2.34,-2.637 -3.162,-4.34c-0.821,-1.703 -1.232,-3.745 -1.232,-6.126c-0,-3.12 0.714,-5.787 2.143,-8.002c1.429,-2.215 3.471,-3.912 6.126,-5.09c2.656,-1.179 5.793,-1.769 9.413,-1.769c2.715,0 5.305,0.316 7.77,0.947c2.464,0.631 5.042,1.542 7.733,2.733l-3.572,8.609c-2.405,-0.977 -4.56,-1.733 -6.465,-2.269c-1.906,-0.535 -3.847,-0.803 -5.823,-0.803c-1.381,-0 -2.56,0.22 -3.537,0.661c-0.976,0.44 -1.714,1.059 -2.214,1.857c-0.5,0.798 -0.751,1.721 -0.751,2.768c0,1.239 0.364,2.281 1.09,3.126c0.726,0.846 1.822,1.661 3.286,2.447c1.465,0.786 3.293,1.703 5.484,2.751c2.667,1.262 4.947,2.578 6.84,3.947c1.894,1.369 3.352,2.977 4.376,4.822c1.024,1.846 1.536,4.138 1.536,6.877Z" style="fill:#fff;fill-rule:nonzero;"/>
    <rect x="486.981" y="201.687" width="11.074" height="52.225" style="fill:#fff;fill-rule:nonzero;"/>
    <path d="M563.888,227.728c0,4.024 -0.5,7.686 -1.5,10.984c-1,3.299 -2.518,6.139 -4.555,8.52c-2.036,2.381 -4.614,4.209 -7.733,5.483c-3.12,1.274 -6.811,1.911 -11.074,1.911c-4.263,0 -7.954,-0.637 -11.074,-1.911c-3.12,-1.274 -5.698,-3.102 -7.734,-5.483c-2.036,-2.381 -3.554,-5.227 -4.554,-8.538c-1,-3.31 -1.501,-6.989 -1.501,-11.038c0,-5.406 0.888,-10.115 2.662,-14.128c1.774,-4.012 4.507,-7.126 8.198,-9.341c3.691,-2.215 8.383,-3.322 14.074,-3.322c5.668,-0 10.33,1.107 13.985,3.322c3.656,2.215 6.371,5.335 8.145,9.359c1.774,4.025 2.661,8.752 2.661,14.182Zm-38.115,-0c0,3.643 0.458,6.781 1.375,9.413c0.917,2.631 2.352,4.655 4.305,6.072c1.953,1.417 4.477,2.126 7.573,2.126c3.143,-0 5.692,-0.709 7.644,-2.126c1.953,-1.417 3.376,-3.441 4.269,-6.072c0.893,-2.632 1.34,-5.77 1.34,-9.413c-0,-5.478 -1.024,-9.788 -3.072,-12.932c-2.048,-3.143 -5.418,-4.715 -10.11,-4.715c-3.119,0 -5.662,0.709 -7.626,2.126c-1.965,1.417 -3.406,3.441 -4.323,6.072c-0.917,2.632 -1.375,5.781 -1.375,9.449Z" style="fill:#fff;fill-rule:nonzero;"/>
    <path d="M628.793,253.912l-14.074,-0l-22.719,-39.508l-0.322,-0c0.095,1.643 0.179,3.298 0.25,4.965l0.429,9.966l-0,24.577l-9.895,-0l-0,-52.225l13.967,-0l22.684,39.115l0.25,0c-0.048,-1.619 -0.107,-3.227 -0.179,-4.822c-0.071,-1.596 -0.137,-3.192 -0.196,-4.787c-0.06,-1.596 -0.114,-3.191 -0.161,-4.787l-0,-24.719l9.966,-0l0,52.225Z" style="fill:#fff;fill-rule:nonzero;"/>
    <path d="M676.695,253.912l-30.078,-0l-0,-52.225l30.078,-0l-0,9.073l-19.004,-0l-0,11.467l17.682,-0l-0,9.073l-17.682,0l-0,13.467l19.004,0l-0,9.145Z" style="fill:#fff;fill-rule:nonzero;"/>
    <path d="M727.168,239.409c-0,3.096 -0.75,5.787 -2.251,8.073c-1.5,2.286 -3.685,4.049 -6.555,5.287c-2.869,1.238 -6.352,1.857 -10.448,1.857c-1.81,0 -3.578,-0.119 -5.305,-0.357c-1.726,-0.238 -3.382,-0.589 -4.965,-1.054c-1.584,-0.464 -3.09,-1.042 -4.519,-1.732l-0,-10.288c2.477,1.095 5.049,2.084 7.716,2.965c2.667,0.881 5.311,1.322 7.93,1.322c1.81,-0 3.269,-0.239 4.376,-0.715c1.107,-0.476 1.911,-1.131 2.411,-1.965c0.5,-0.833 0.75,-1.786 0.75,-2.857c0,-1.31 -0.44,-2.429 -1.321,-3.358c-0.881,-0.929 -2.09,-1.798 -3.626,-2.608c-1.536,-0.81 -3.269,-1.679 -5.198,-2.608c-1.214,-0.571 -2.536,-1.268 -3.965,-2.089c-1.429,-0.822 -2.786,-1.828 -4.072,-3.019c-1.286,-1.191 -2.34,-2.637 -3.161,-4.34c-0.822,-1.703 -1.233,-3.745 -1.233,-6.126c0,-3.12 0.715,-5.787 2.144,-8.002c1.428,-2.215 3.471,-3.912 6.126,-5.09c2.655,-1.179 5.793,-1.769 9.413,-1.769c2.714,0 5.304,0.316 7.769,0.947c2.465,0.631 5.043,1.542 7.734,2.733l-3.572,8.609c-2.406,-0.977 -4.561,-1.733 -6.466,-2.269c-1.905,-0.535 -3.846,-0.803 -5.823,-0.803c-1.381,-0 -2.56,0.22 -3.536,0.661c-0.977,0.44 -1.715,1.059 -2.215,1.857c-0.5,0.798 -0.75,1.721 -0.75,2.768c-0,1.239 0.363,2.281 1.089,3.126c0.727,0.846 1.822,1.661 3.287,2.447c1.464,0.786 3.292,1.703 5.483,2.751c2.667,1.262 4.948,2.578 6.841,3.947c1.893,1.369 3.352,2.977 4.376,4.822c1.024,1.846 1.536,4.138 1.536,6.877Z" style="fill:#fff;fill-rule:nonzero;"/>
    <rect x="948.379" y="26.812" width="7.909" height="259.933" style="fill:#ff7560;"/>
    <rect x="28.667" y="113.61" width="7.909" height="69.152" style="fill:#ff7560;"/>
    <rect x="872.435" y="174.702" width="7.909" height="98.964" style="fill:#ff7560;"/>
    <path d="M28.826,174.574l0,7.909l851.301,-0l-0,-7.909l-851.301,0Z" style="fill:#ff7560;"/>
    <path d="M28.826,266.346l0,7.909l851.301,0l-0,-7.909l-851.301,0Z" style="fill:#ff7560;"/>
    <clipPath id="_clip1">
        <rect x="1008.35" y="52.743" width="194.539" height="201.248"/>
    </clipPath>
    <g clip-path="url(#_clip1)">
        <g>
            <path d="M1009.97,247.247c-0,2.844 1.455,5.2 4.445,5.2c2.021,-0 3.556,-1.057 4.041,-3.006l1.697,-0c-0.727,2.518 -2.344,4.468 -5.657,4.468c-4.284,-0 -6.062,-3.006 -6.062,-6.987c0,-3.982 2.263,-6.988 6.062,-6.988c3.798,0 5.819,2.6 5.819,7.313l-10.345,0Zm8.567,-1.3c-0,-2.6 -1.374,-4.713 -4.203,-4.713c-2.829,0 -4.122,2.194 -4.445,4.713l8.648,-0Z" style="fill:#fff;fill-rule:nonzero;"/>
            <rect x="1023.55" y="235.059" width="1.536" height="18.443" style="fill:#fff;fill-rule:nonzero;"/>
            <path d="M1040.84,241.153c-0.323,-1.137 -0.889,-3.169 -4.041,-3.169c-1.859,0 -4.526,1.219 -4.526,6.419c-0,3.25 1.293,6.256 4.526,6.256c2.101,-0 3.556,-1.218 4.041,-3.413l3.799,0c-0.809,3.982 -3.395,6.744 -7.921,6.744c-4.849,0 -8.325,-3.331 -8.325,-9.668c0,-6.338 3.637,-9.668 8.406,-9.668c5.496,-0 7.678,3.818 7.92,6.499l-3.879,0Z" style="fill:#fff;fill-rule:nonzero;"/>
            <path d="M1055.39,234.654c2.425,-0 8.729,1.055 8.729,9.668c-0,8.612 -6.385,9.668 -8.729,9.668c-2.344,0 -8.729,-1.056 -8.729,-9.668c0,-8.613 6.304,-9.668 8.729,-9.668Zm-0,16.086c2.101,-0 4.93,-1.299 4.93,-6.418c-0,-5.119 -2.829,-6.419 -4.93,-6.419c-2.102,0 -4.93,1.3 -4.93,6.419c-0,5.119 2.909,6.418 4.93,6.418Z" style="fill:#fff;fill-rule:nonzero;"/>
            <path d="M1071.23,250.172l9.052,-0l0,3.33l-12.851,0l0,-18.361l3.799,0l0,15.031Z" style="fill:#fff;fill-rule:nonzero;"/>
            <path d="M1090.23,234.654c2.425,-0 8.81,1.055 8.81,9.668c0,8.612 -6.385,9.668 -8.81,9.668c-2.424,0 -8.729,-1.056 -8.729,-9.668c0,-8.613 6.385,-9.668 8.729,-9.668Zm0,16.086c2.102,-0 5.011,-1.299 5.011,-6.418c0,-5.119 -2.909,-6.419 -5.011,-6.419c-2.101,0 -4.93,1.3 -4.93,6.419c0,5.119 2.91,6.418 4.93,6.418Z" style="fill:#fff;fill-rule:nonzero;"/>
            <path d="M1119.89,253.502l-3.637,0l-0,-15.355l-3.395,15.355l-3.717,0l-3.314,-15.355l-0,15.355l-3.556,0l-0,-18.361l5.576,0l3.314,14.462l3.233,-14.462l5.496,0l-0,18.361Z" style="fill:#fff;fill-rule:nonzero;"/>
            <path d="M1123.2,235.141l8.89,0c4.445,0 5.658,2.844 5.658,4.712c0,2.6 -1.536,3.413 -2.263,3.737c2.263,0.895 2.829,2.682 2.829,4.469c-0,1.463 -0.647,2.844 -1.617,3.819c-1.051,0.974 -2.021,1.706 -5.738,1.706l-7.759,-0l-0,-18.443Zm3.637,7.15l4.526,-0c1.536,-0 2.667,-0.569 2.667,-2.031c-0,-1.463 -1.051,-1.95 -2.829,-1.95l-4.364,-0l0,3.981Zm0.081,8.043l4.687,0c1.859,0 2.91,-0.812 2.91,-2.681c-0,-1.625 -1.374,-2.194 -2.748,-2.194l-4.849,0l-0,4.875Z" style="fill:#fff;fill-rule:nonzero;"/>
            <rect x="1141.06" y="235.141" width="3.799" height="18.361" style="fill:#fff;fill-rule:nonzero;"/>
            <path d="M1151.65,253.502l-4.042,0l6.547,-18.361l4.364,0l6.385,18.361l-4.122,0l-1.212,-3.818l-6.708,0l-1.294,3.818l0.082,0Zm2.343,-6.986l4.607,-0l-2.263,-7.313l-2.344,7.313Z" style="fill:#fff;fill-rule:nonzero;"/>
            <path d="M1178.73,235.141l3.556,0l-0,18.361l-3.798,0l-7.437,-13.08l0,13.08l-3.556,0l0,-18.361l4.041,0l7.194,12.755l-0,-12.755Z" style="fill:#fff;fill-rule:nonzero;"/>
            <path d="M1194.16,234.654c2.424,-0 8.81,1.055 8.81,9.668c-0,8.612 -6.386,9.668 -8.81,9.668c-2.425,0 -8.81,-1.056 -8.81,-9.668c-0,-8.613 6.385,-9.668 8.81,-9.668Zm-0,16.086c2.02,-0 4.93,-1.299 4.93,-6.418c-0,-5.119 -2.91,-6.419 -4.93,-6.419c-2.021,0 -5.011,1.3 -5.011,6.419c-0,5.119 2.909,6.418 5.011,6.418Z" style="fill:#fff;fill-rule:nonzero;"/>
            <rect x="1008.35" y="230.022" width="194.539" height="0.731" style="fill:#fff;fill-rule:nonzero;"/>
            <path d="M1164.02,170.063l-9.779,-0c-0.405,24.13 -22.55,39.16 -38.149,39.16c-15.599,0 -29.984,-12.187 -29.984,-32.661l-0,-78.078c-0,-19.661 13.012,-32.661 30.469,-32.661c24.004,0 35.966,33.961 37.664,39.08l9.617,-0l0,-52.16c-1.859,12.268 -16.083,19.499 -26.994,12.674c-12.851,-8.043 -28.046,-12.674 -44.372,-12.674c-46.392,-0 -84.136,37.942 -84.136,84.74c0,46.798 37.744,84.74 84.298,84.74c64.9,-0 71.366,-45.661 71.366,-52.16Z" style="fill:#fff;fill-rule:nonzero;"/>
            <path d="M1202.89,202.642c-0,10.806 -8.729,19.581 -19.479,19.581c-10.749,-0 -19.478,-8.775 -19.478,-19.581c0,-10.805 8.729,-19.58 19.478,-19.58c10.75,-0 19.479,8.693 19.479,19.58Z" style="fill:#fff;fill-rule:nonzero;"/>
        </g>
    </g>
</svg>
